<?xml version="1.0" encoding="utf-8"?>
<!-- Generator: Adobe Illustrator 24.2.3, SVG Export Plug-In . SVG Version: 6.00 Build 0)  -->
<svg version="1.1" id="Calque_1" xmlns="http://www.w3.org/2000/svg" xmlns:xlink="http://www.w3.org/1999/xlink" x="0px" y="0px"
	 viewBox="0 0 24 24" style="enable-background:new 0 0 24 24;" xml:space="preserve">
<style type="text/css">
	.st0{opacity:0.7;}
	.st1{fill:none;}
	.st2{fill:#B6B6B6;}
</style>
<g id="ic-transaction-staked" class="st0">
	<path id="Rectangle_4527" class="st1" d="M0,0h24v24H0V0z"/>
	<g>
		<path class="st2" d="M21.1,7.5h-5c0.6-0.5,1-1.3,1-2.1c0-1.5-1.2-2.7-2.7-2.7c-1.2,0-2.3,0.8-2.6,1.9c-0.4-0.5-1-0.8-1.7-0.8
			C8.9,3.7,8,4.7,8,5.9c0,0.6,0.3,1.2,0.7,1.6H2.9C2.4,7.5,2,7.9,2,8.4v1.8c0,0.5,0.4,0.9,0.9,0.9v9.4c0,0.5,0.4,0.9,0.9,0.9h7.3
			h1.7h7.3c0.5,0,0.9-0.4,0.9-0.9v-9.4c0.5,0,0.9-0.4,0.9-0.9V8.4C22,7.9,21.6,7.5,21.1,7.5z M12.3,5.3c0-1.2,0.9-2.1,2.1-2.1
			c1.2,0,2.1,1,2.1,2.1c0,1.2-1,2.1-2.1,2.1h-1.6h-0.5V5.9V5.3z M12.5,10.5h-1.1V8.1H12h0.5V10.5z M8.6,5.9c0-0.9,0.7-1.6,1.6-1.6
			c0.9,0,1.6,0.7,1.6,1.6v1.6h-0.5h-1C9.3,7.5,8.6,6.8,8.6,5.9z M2.6,10.2V8.4c0-0.2,0.1-0.3,0.3-0.3h7.2h0.7v2.4H3.2H2.9
			C2.7,10.5,2.6,10.3,2.6,10.2z M3.5,20.5v-9.4h7.3v9.7h-7C3.7,20.8,3.5,20.7,3.5,20.5z M11.5,20.8v-9.7h1.1v9.7H11.5z M20.5,20.5
			c0,0.2-0.1,0.3-0.3,0.3h-7v-9.7h7.3V20.5z M21.4,10.2c0,0.2-0.1,0.3-0.3,0.3h-0.3h-7.7V8.1h1.3h6.7c0.2,0,0.3,0.1,0.3,0.3V10.2z"
			/>
	</g>
</g>
</svg>
