<?xml version="1.0" encoding="utf-8"?>
<!-- Generator: Adobe Illustrator 24.2.3, SVG Export Plug-In . SVG Version: 6.00 Build 0)  -->
<svg version="1.1" id="ic-transaction-sent" xmlns="http://www.w3.org/2000/svg" xmlns:xlink="http://www.w3.org/1999/xlink"
	 x="0px" y="0px" viewBox="0 0 24 24" style="enable-background:new 0 0 24 24;" xml:space="preserve">
<style type="text/css">
	.st0{fill:#707070;}
</style>
<g>
	<path class="st0" d="M2.1,11.1l3.3,3.3l-0.3,3.7c0,0,0,0,0,0c0,0,0,0,0,0.1c0,0,0,0,0,0.1c0,0,0,0,0,0c0,0,0,0,0,0l0,0
		c0,0,0,0,0.1,0.1c0,0,0,0,0,0c0,0,0.1,0,0.1,0l4,0.1l3.3,3.3c0.1,0.1,0.1,0.1,0.2,0.1c0,0,0,0,0.1,0c0.1,0,0.2-0.1,0.2-0.2l2.7-6.3
		c3.4-0.3,6.1-3.2,6.1-6.7c0-3.7-3-6.7-6.7-6.7c-3.7,0-6.7,3-6.7,6.7c0,0.2,0,0.4,0,0.6l-6.3,1.2c-0.1,0-0.2,0.1-0.2,0.2
		C2,10.9,2,11.1,2.1,11.1z M16.2,14.8l3-6.9c0-0.1,0-0.2,0-0.3c-0.1-0.1-0.2-0.1-0.3-0.1L9.2,9.3c0-0.2,0-0.4,0-0.5
		c0-3.4,2.8-6.1,6.1-6.1s6.1,2.8,6.1,6.1C21.4,11.9,19.1,14.4,16.2,14.8z M2.9,11.1l15.5-2.9l-5.7,12.9L10,18.2l7.2-8
		c0.1-0.1,0.1-0.3,0-0.4c-0.1-0.1-0.3-0.1-0.4,0l-7.3,8.1l-3.1-0.1l8.4-6.5c0.1-0.1,0.2-0.3,0.1-0.4c-0.1-0.1-0.3-0.2-0.4-0.1
		l-8.6,6.6L6,14.6l10-5c0.1-0.1,0.2-0.3,0.1-0.4C16.1,9,15.9,9,15.7,9L5.8,14L2.9,11.1z"/>
</g>
</svg>
