<?xml version="1.0" encoding="utf-8"?>
<!-- Generator: Adobe Illustrator 24.2.3, SVG Export Plug-In . SVG Version: 6.00 Build 0)  -->
<svg version="1.1" id="Calque_1" xmlns="http://www.w3.org/2000/svg" xmlns:xlink="http://www.w3.org/1999/xlink" x="0px" y="0px"
	 viewBox="0 0 70 40" style="enable-background:new 0 0 70 40;" xml:space="preserve">
<style type="text/css">
	.st0{fill:#7A7A7C;}
</style>
<desc>Created with Sketch.</desc>
<g>
	<g>
		<path class="st0" d="M32.5,15.1v-2.9c0-0.1-0.1-0.2-0.2-0.3l-1.8-1V9.4c0-0.2-0.1-0.3-0.3-0.3H14.8h-2.7c-0.2,0-0.3,0.1-0.3,0.3
			v21.3c0,0.2,0.1,0.3,0.3,0.3h2.7h15.3c0.2,0,0.3-0.1,0.3-0.3v-1.5l1.8-1c0.1-0.1,0.2-0.2,0.2-0.3v-2.8c0-0.1-0.1-0.2-0.2-0.3
			l-0.8-0.4l0.8-0.4c0.1-0.1,0.2-0.2,0.2-0.3v-2.9c0-0.1-0.1-0.2-0.2-0.3l-0.7-0.4l0.8-0.4c0.1-0.1,0.2-0.2,0.2-0.3v-2.9
			c0-0.1-0.1-0.2-0.2-0.3l-0.8-0.4l0.8-0.4C32.4,15.3,32.5,15.2,32.5,15.1z M12.5,9.8h2v20.7h-2V9.8z M29.8,30.4H15.2V9.8h14.7v1.3
			v4.3l0,0v4.3v0.1V24l0,0v5v1.4H29.8z M31.8,27.8l-1.3,0.7v-3.9l1.3,0.7V27.8z M31.8,23.5l-1,0.5l-0.3-0.2v-3.6l1.3,0.7V23.5z
			 M31.8,19.2l-1,0.5l-0.3-0.2v-3.6l1.3,0.7V19.2z M31.8,14.9l-1,0.5l-0.3-0.2v-3.6l1.3,0.7V14.9z"/>
	</g>
	<g>
		<path class="st0" d="M25.9,14.1h-6.7c-0.9,0-1.6,0.7-1.6,1.6v2c0,0.9,0.7,1.7,1.6,1.7h6.7c0.9,0,1.6-0.7,1.6-1.7v-2
			C27.5,14.8,26.8,14.1,25.9,14.1z M26.8,17.8c0,0.5-0.4,1-1,1h-6.7c-0.5,0-1-0.4-1-1v-2c0-0.5,0.4-1,1-1h6.7c0.5,0,1,0.4,1,1V17.8z
			"/>
	</g>
	<g>
		<path class="st0" d="M20.8,21.4h5.7c0.2,0,0.3-0.1,0.3-0.3c0-0.2-0.1-0.3-0.3-0.3h-5.7c-0.2,0-0.3,0.2-0.3,0.3
			C20.5,21.3,20.7,21.4,20.8,21.4z"/>
	</g>
	<g>
		<path class="st0" d="M18.8,20.7h-1c-0.2,0-0.3,0.2-0.3,0.3c0,0.2,0.2,0.3,0.3,0.3h1c0.2,0,0.3-0.1,0.3-0.3
			C19.2,20.9,19,20.7,18.8,20.7z"/>
	</g>
	<g>
		<path class="st0" d="M27.2,22.8h-6.3c-0.2,0-0.3,0.1-0.3,0.3c0,0.2,0.1,0.3,0.3,0.3h6.3c0.2,0,0.3-0.1,0.3-0.3
			C27.5,22.9,27.4,22.8,27.2,22.8z"/>
	</g>
	<g>
		<path class="st0" d="M18.8,22.8h-1c-0.2,0-0.3,0.1-0.3,0.3c0,0.2,0.2,0.3,0.3,0.3h1c0.2,0,0.3-0.1,0.3-0.3
			C19.2,22.9,19,22.8,18.8,22.8z"/>
	</g>
	<g>
		<path class="st0" d="M25.8,24.8h-5c-0.2,0-0.3,0.1-0.3,0.3c0,0.2,0.1,0.3,0.3,0.3h5c0.2,0,0.3-0.1,0.3-0.3
			C26.2,24.9,26,24.8,25.8,24.8z"/>
	</g>
	<g>
		<path class="st0" d="M18.8,24.8h-1c-0.2,0-0.3,0.1-0.3,0.3c0,0.2,0.2,0.3,0.3,0.3h1c0.2,0,0.3-0.1,0.3-0.3
			C19.2,24.9,19,24.8,18.8,24.8z"/>
	</g>
</g>
</svg>
