<?xml version="1.0" encoding="utf-8"?>
<!-- Generator: Adobe Illustrator 24.2.3, SVG Export Plug-In . SVG Version: 6.00 Build 0)  -->
<svg version="1.1" id="Calque_1" xmlns="http://www.w3.org/2000/svg" xmlns:xlink="http://www.w3.org/1999/xlink" x="0px" y="0px"
	 viewBox="0 0 70 40" style="enable-background:new 0 0 70 40;" xml:space="preserve">
<style type="text/css">
	.st0{fill:#FFFFFF;}
</style>
<g>
	<g>
		<path class="st0" d="M32.7,15.1v-2.9c0-0.1-0.1-0.2-0.2-0.3l-1.8-1V9.4c0-0.2-0.1-0.3-0.3-0.3H15h-2.7c-0.2,0-0.3,0.1-0.3,0.3
			v21.3c0,0.2,0.1,0.3,0.3,0.3H15h15.3c0.2,0,0.3-0.1,0.3-0.3v-1.5l1.8-1c0.1-0.1,0.2-0.2,0.2-0.3v-2.8c0-0.1-0.1-0.2-0.2-0.3
			l-0.8-0.4l0.8-0.4c0.1-0.1,0.2-0.2,0.2-0.3v-2.9c0-0.1-0.1-0.2-0.2-0.3l-0.7-0.4l0.8-0.4c0.1-0.1,0.2-0.2,0.2-0.3v-2.9
			c0-0.1-0.1-0.2-0.2-0.3l-0.8-0.4l0.8-0.4C32.6,15.3,32.7,15.2,32.7,15.1z M12.7,9.8h2v20.7h-2V9.8z M30,30.4H15.4V9.8h14.7v1.3
			v4.3l0,0v4.3v0.1V24l0,0v5L30,30.4L30,30.4z M32,27.8l-1.3,0.7v-3.9l1.3,0.7V27.8z M32,23.5L31,24l-0.3-0.2v-3.6l1.3,0.7V23.5z
			 M32,19.2l-1,0.5l-0.3-0.2v-3.6l1.3,0.7V19.2z M32,14.9l-1,0.5l-0.3-0.2v-3.6l1.3,0.7V14.9z"/>
	</g>
	<g>
		<path class="st0" d="M26.1,14.1h-6.7c-0.9,0-1.6,0.7-1.6,1.6v2c0,0.9,0.7,1.7,1.6,1.7h6.7c0.9,0,1.6-0.7,1.6-1.7v-2
			C27.7,14.8,27,14.1,26.1,14.1z M27,17.8c0,0.5-0.4,1-1,1h-6.7c-0.5,0-1-0.4-1-1v-2c0-0.5,0.4-1,1-1H26c0.5,0,1,0.4,1,1V17.8z"/>
	</g>
	<g>
		<path class="st0" d="M21,21.4h5.7c0.2,0,0.3-0.1,0.3-0.3c0-0.2-0.1-0.3-0.3-0.3H21c-0.2,0-0.3,0.2-0.3,0.3
			C20.7,21.3,20.9,21.4,21,21.4z"/>
	</g>
	<g>
		<path class="st0" d="M19,20.7h-1c-0.2,0-0.3,0.2-0.3,0.3c0,0.2,0.2,0.3,0.3,0.3h1c0.2,0,0.3-0.1,0.3-0.3
			C19.4,20.9,19.2,20.7,19,20.7z"/>
	</g>
	<g>
		<path class="st0" d="M27.4,22.8h-6.3c-0.2,0-0.3,0.1-0.3,0.3c0,0.2,0.1,0.3,0.3,0.3h6.3c0.2,0,0.3-0.1,0.3-0.3
			C27.7,22.9,27.6,22.8,27.4,22.8z"/>
	</g>
	<g>
		<path class="st0" d="M19,22.8h-1c-0.2,0-0.3,0.1-0.3,0.3c0,0.2,0.2,0.3,0.3,0.3h1c0.2,0,0.3-0.1,0.3-0.3
			C19.4,22.9,19.2,22.8,19,22.8z"/>
	</g>
	<g>
		<path class="st0" d="M26,24.8h-5c-0.2,0-0.3,0.1-0.3,0.3c0,0.2,0.1,0.3,0.3,0.3h5c0.2,0,0.3-0.1,0.3-0.3
			C26.4,24.9,26.2,24.8,26,24.8z"/>
	</g>
	<g>
		<path class="st0" d="M19,24.8h-1c-0.2,0-0.3,0.1-0.3,0.3c0,0.2,0.2,0.3,0.3,0.3h1c0.2,0,0.3-0.1,0.3-0.3
			C19.4,24.9,19.2,24.8,19,24.8z"/>
	</g>
</g>
</svg>
