<?xml version="1.0" encoding="utf-8"?>
<!-- Generator: Adobe Illustrator 24.2.3, SVG Export Plug-In . SVG Version: 6.00 Build 0)  -->
<svg version="1.1" id="Calque_1" xmlns="http://www.w3.org/2000/svg" xmlns:xlink="http://www.w3.org/1999/xlink" x="0px" y="0px"
	 viewBox="0 0 26 26" style="enable-background:new 0 0 26 26;" xml:space="preserve">
<style type="text/css">
	.st0{opacity:0.5;}
	.st1{fill:none;}
	.st2{fill:#FFFFFF;}
</style>
<g id="ic_address_book" class="st0">
	<path id="Rectangle_4393" class="st1" d="M0,0h26v26H0V0z"/>
	<g>
		<g>
			<path class="st2" d="M22.5,8.5V5.8c0-0.1-0.1-0.2-0.2-0.3l-1.6-0.9V3.3c0-0.2-0.1-0.3-0.3-0.3H6.3H3.8C3.6,3,3.5,3.1,3.5,3.3
				v19.5c0,0.2,0.1,0.3,0.3,0.3h2.5h14c0.2,0,0.3-0.1,0.3-0.3v-1.4l1.6-0.9c0.1-0.1,0.2-0.2,0.2-0.3v-2.6c0-0.1-0.1-0.2-0.2-0.3
				L21.4,17l0.7-0.4c0.1-0.1,0.2-0.2,0.2-0.3v-2.6c0-0.1-0.1-0.2-0.2-0.3L21.5,13l0.7-0.4c0.1-0.1,0.2-0.2,0.2-0.3V9.8
				c0-0.1-0.1-0.2-0.2-0.3l-0.7-0.4l0.7-0.4C22.4,8.7,22.5,8.6,22.5,8.5z M4.1,3.6h1.8v18.9H4.1C4.1,22.5,4.1,3.6,4.1,3.6z
				 M19.9,22.5H6.6V3.6H20v1.2v3.9l0,0v3.9v0.1v3.8l0,0v4.6L19.9,22.5L19.9,22.5z M21.7,20.1l-1.2,0.6v-3.6l1.2,0.6V20.1z
				 M21.7,16.2l-0.9,0.5l-0.3-0.2v-3.3l1.2,0.6V16.2z M21.7,12.2l-0.9,0.5l-0.3-0.2V9.2l1.2,0.6V12.2z M21.7,8.3l-0.9,0.5l-0.3-0.2
				V5.3l1.2,0.6V8.3z"/>
		</g>
		<g>
			<path class="st2" d="M16.4,7.6h-6.1C9.5,7.6,8.8,8.2,8.8,9v1.8c0,0.8,0.6,1.6,1.5,1.6h6.1c0.8,0,1.5-0.6,1.5-1.6V9
				C17.9,8.2,17.2,7.6,16.4,7.6z M17.2,10.9c0,0.5-0.4,0.9-0.9,0.9h-6.1c-0.5,0-0.9-0.4-0.9-0.9V9.1c0-0.5,0.4-0.9,0.9-0.9h6.1
				c0.5,0,0.9,0.4,0.9,0.9C17.2,9.1,17.2,10.9,17.2,10.9z"/>
		</g>
		<g>
			<path class="st2" d="M11.7,14.2h5.2c0.2,0,0.3-0.1,0.3-0.3c0-0.2-0.1-0.3-0.3-0.3h-5.2c-0.2,0-0.3,0.2-0.3,0.3
				C11.5,14.1,11.7,14.2,11.7,14.2z"/>
		</g>
		<g>
			<path class="st2" d="M9.8,13.6H8.9c-0.2,0-0.3,0.2-0.3,0.3c0,0.2,0.2,0.3,0.3,0.3h0.9c0.2,0,0.3-0.1,0.3-0.3
				C10.3,13.8,10.1,13.6,9.8,13.6z"/>
		</g>
		<g>
			<path class="st2" d="M17.6,15.5h-5.8c-0.2,0-0.3,0.1-0.3,0.3c0,0.2,0.1,0.3,0.3,0.3h5.8c0.2,0,0.3-0.1,0.3-0.3
				C17.9,15.6,17.8,15.5,17.6,15.5z"/>
		</g>
		<g>
			<path class="st2" d="M9.8,15.5H8.9c-0.2,0-0.3,0.1-0.3,0.3c0,0.2,0.2,0.3,0.3,0.3h0.9c0.2,0,0.3-0.1,0.3-0.3
				C10.3,15.6,10.1,15.5,9.8,15.5z"/>
		</g>
		<g>
			<path class="st2" d="M16.2,17.3h-4.6c-0.2,0-0.3,0.1-0.3,0.3c0,0.2,0.1,0.3,0.3,0.3h4.6c0.2,0,0.3-0.1,0.3-0.3
				C16.7,17.4,16.5,17.3,16.2,17.3z"/>
		</g>
		<g>
			<path class="st2" d="M9.8,17.3H8.9c-0.2,0-0.3,0.1-0.3,0.3c0,0.2,0.2,0.3,0.3,0.3h0.9c0.2,0,0.3-0.1,0.3-0.3
				C10.3,17.4,10.1,17.3,9.8,17.3z"/>
		</g>
	</g>
</g>
</svg>
