<?xml version="1.0" encoding="utf-8"?>
<!-- Generator: Adobe Illustrator 24.2.3, SVG Export Plug-In . SVG Version: 6.00 Build 0)  -->
<svg version="1.1" id="ic-add_label" xmlns="http://www.w3.org/2000/svg" xmlns:xlink="http://www.w3.org/1999/xlink" x="0px"
	 y="0px" viewBox="0 0 24 24" style="enable-background:new 0 0 24 24;" xml:space="preserve">
<style type="text/css">
	.st0{fill:#7A7A7C;}
	.st1{fill:none;}
</style>
<g id="Group_8927">
	<path id="Path_18922" class="st0" d="M22,16h-4v-4h-2v4h-4v2h4v4h2v-4h4V16z"/>
</g>
<path id="Rectangle_4535" class="st1" d="M0,0h24v24H0V0z"/>
<g>
	<g>
		<path class="st0" d="M12.8,6.5H7.7C6.9,6.5,6.4,7.2,6.4,8v1.9c0,0.8,0.6,1.5,1.3,1.5h5.2c0.7,0,1.3-0.7,1.3-1.5V8
			C14.1,7.2,13.5,6.5,12.8,6.5z M13.6,9.9c0,0.5-0.3,0.9-0.8,0.9H7.7c-0.4,0-0.8-0.4-0.8-0.9V8c0-0.5,0.3-0.9,0.8-0.9h5.2
			c0.4,0,0.8,0.4,0.8,0.9V9.9z"/>
	</g>
	<g>
		<path class="st0" d="M9,13.2h4.4c0.1,0,0.3-0.1,0.3-0.3c0-0.2-0.1-0.3-0.3-0.3H9c-0.1,0-0.3,0.1-0.3,0.3C8.7,13.1,8.8,13.2,9,13.2
			z"/>
	</g>
	<g>
		<path class="st0" d="M7.4,12.6H6.6c-0.1,0-0.3,0.1-0.3,0.3c0,0.2,0.1,0.3,0.3,0.3h0.8c0.1,0,0.3-0.1,0.3-0.3
			C7.7,12.7,7.6,12.6,7.4,12.6z"/>
	</g>
	<path class="st0" d="M4.6,21.4V2.6h11.3v1.2v3.9v0v1.3h0.5l0-0.5l1.4-0.9C17.9,7.6,18,7.5,18,7.4V4.8c0-0.1,0-0.2-0.1-0.3l-1.4-0.9
		V2.3c0-0.2-0.1-0.3-0.3-0.3H4.3H2.3C2.1,2,2,2.1,2,2.3v19.4C2,21.9,2.1,22,2.3,22h2.1H13v-0.6H4.6z M17.5,5v2.3l-1,0.6l0-3.5
		L17.5,5z M4.1,21.4H2.5V2.6h1.5V21.4z"/>
</g>
</svg>
