<?xml version="1.0" encoding="utf-8"?>
<!-- Generator: Adobe Illustrator 24.2.3, SVG Export Plug-In . SVG Version: 6.00 Build 0)  -->
<svg version="1.1" id="ic_piv" xmlns="http://www.w3.org/2000/svg" xmlns:xlink="http://www.w3.org/1999/xlink" x="0px" y="0px"
	 viewBox="0 0 24 24" style="enable-background:new 0 0 24 24;" xml:space="preserve">
<style type="text/css">
	.st0{fill:none;}
	.st1{fill:#170299;}
	.st2{fill:url(#SVGID_1_);}
	.st3{fill:#EAC654;}
	.st4{fill:#C8992E;}
	.st5{fill:#F9DF7B;}
	.st6{fill:#B57E10;}
</style>
<path id="Rectangle_4543" class="st0" d="M0,0h24v24H0V0z"/>
<g>
	<path class="st1" d="M13.6,2.4l5.9,3.4c1,0.6,1.6,1.6,1.6,2.7v6.9c0,1.1-0.6,2.1-1.6,2.7l-5.9,3.5c-1,0.6-2.1,0.6-3.1,0l-5.9-3.5
		c-1-0.6-1.6-1.6-1.6-2.7V8.6c0-1.1,0.6-2.1,1.6-2.7l5.9-3.5C11.4,1.9,12.6,1.9,13.6,2.4z"/>
	
		<linearGradient id="SVGID_1_" gradientUnits="userSpaceOnUse" x1="7.2379" y1="762.8813" x2="16.8529" y2="777.1619" gradientTransform="matrix(1 0 0 1 0 -758)">
		<stop  offset="0" style="stop-color:#FFFFFF;stop-opacity:0.5"/>
		<stop  offset="1" style="stop-color:#FFFFFF;stop-opacity:0"/>
	</linearGradient>
	<path class="st2" d="M13.6,2.4l5.9,3.4c1,0.6,1.6,1.6,1.6,2.7v6.9c0,1.1-0.6,2.1-1.6,2.7l-5.9,3.5c-1,0.6-2.1,0.6-3.1,0l-5.9-3.5
		c-1-0.6-1.6-1.6-1.6-2.7V8.6c0-1.1,0.6-2.1,1.6-2.7l5.9-3.5C11.4,1.9,12.6,1.9,13.6,2.4z"/>
	<g>
		<polygon class="st3" points="6.3,10.2 8,11.5 8,9.4 		"/>
		<polygon class="st4" points="6.3,13 8,11.5 5.7,11.6 		"/>
		<polygon class="st5" points="8,12.2 8,11.5 6.3,13 		"/>
		<polygon class="st6" points="5.7,11.6 8,11.5 6.3,10.2 		"/>
		<polygon class="st4" points="9,13.3 8.8,12.6 7.8,13.6 		"/>
		<polygon class="st6" points="8.8,12.6 8,12.2 7.8,13.6 		"/>
		<polygon class="st3" points="7.8,13.6 8,12.2 6.3,13 		"/>
		<polygon class="st5" points="9.5,12.4 8.8,12.6 9,13.3 		"/>
		<polygon class="st6" points="9.6,11.1 9.7,9.6 8.6,11 		"/>
		<polygon class="st3" points="11.1,10.6 9.7,9.6 9.6,11.1 		"/>
		<polygon class="st4" points="9.7,9.6 8,9.4 8.6,11 		"/>
		<polygon class="st3" points="11.9,12.6 11.7,11.8 10.8,12.6 		"/>
		<polygon class="st5" points="8,9.4 8,11.5 8.6,11 		"/>
		<polygon class="st6" points="10.8,12.6 11.7,11.8 10.6,11.8 		"/>
		<polygon class="st4" points="11.7,11.8 11.1,10.6 10.6,11.8 		"/>
		<polygon class="st5" points="10.6,11.8 11.1,10.6 9.6,11.1 		"/>
		<polygon class="st5" points="10.8,12.6 11.5,13.2 11.9,12.6 		"/>
		<polygon class="st4" points="11.5,13.2 11.9,13.9 11.9,12.6 		"/>
		<polygon class="st3" points="12,18.7 12,16.9 10.6,16.3 		"/>
		<polygon class="st5" points="10.6,16.3 12,16.9 12,14.7 		"/>
		<polygon class="st6" points="12,18.7 12,16.9 13.4,16.3 		"/>
		<polygon class="st4" points="13.4,16.3 12,16.9 12,14.7 		"/>
		<polygon class="st3" points="8.8,14.5 9.7,14.3 9.3,15.2 		"/>
		<polygon class="st4" points="9.3,13.3 9.7,14.3 8.8,13.8 		"/>
		<polygon class="st5" points="9.9,14 9.7,14.3 9.3,13.3 		"/>
		<polygon class="st6" points="8.8,13.8 9.7,14.3 8.8,14.5 		"/>
		<polygon class="st4" points="10.5,13.7 10.3,14 10.1,13.3 		"/>
		<polygon class="st6" points="10.3,14 9.9,14 10.1,13.3 		"/>
		<polygon class="st3" points="10.1,13.3 9.9,14 9.3,13.3 		"/>
		<polygon class="st5" points="10.6,14.2 10.3,14 10.5,13.7 		"/>
		<polygon class="st6" points="10.4,14.8 10.1,15.4 10,14.7 		"/>
		<polygon class="st3" points="10.9,15.3 10.1,15.4 10.4,14.8 		"/>
		<polygon class="st4" points="10.1,15.4 9.3,15.2 10,14.7 		"/>
		<polygon class="st3" points="11.7,14.6 11.4,14.9 11.2,14.4 		"/>
		<polygon class="st5" points="9.3,15.2 9.7,14.3 10,14.7 		"/>
		<polygon class="st6" points="11.2,14.4 11.4,14.9 11,14.7 		"/>
		<polygon class="st4" points="11.4,14.9 10.9,15.3 11,14.7 		"/>
		<polygon class="st5" points="11,14.7 10.9,15.3 10.4,14.8 		"/>
		<polygon class="st5" points="11.2,14.4 11.6,14.2 11.7,14.6 		"/>
		<polygon class="st4" points="11.6,14.2 11.9,14 11.7,14.6 		"/>
		<polygon class="st3" points="15.2,14.5 14.3,14.3 14.6,15.2 		"/>
		<polygon class="st4" points="14.7,13.3 14.3,14.3 15.2,13.8 		"/>
		<polygon class="st5" points="14.1,14 14.3,14.3 14.7,13.3 		"/>
		<polygon class="st6" points="15.2,13.8 14.3,14.3 15.2,14.5 		"/>
		<polygon class="st4" points="13.5,13.7 13.7,14 13.9,13.3 		"/>
		<polygon class="st6" points="13.7,14 14.1,14 13.9,13.3 		"/>
		<polygon class="st3" points="13.9,13.3 14.1,14 14.7,13.3 		"/>
		<polygon class="st5" points="13.4,14.2 13.7,14 13.5,13.7 		"/>
		<polygon class="st6" points="13.6,14.8 13.9,15.4 14,14.7 		"/>
		<polygon class="st3" points="13.1,15.3 13.9,15.4 13.6,14.8 		"/>
		<polygon class="st4" points="13.9,15.4 14.6,15.2 14,14.7 		"/>
		<polygon class="st3" points="12.3,14.6 12.6,14.9 12.8,14.4 		"/>
		<polygon class="st5" points="14.6,15.2 14.3,14.3 14,14.7 		"/>
		<polygon class="st6" points="12.8,14.4 12.6,14.9 13,14.7 		"/>
		<polygon class="st4" points="12.6,14.9 13.1,15.3 13,14.7 		"/>
		<polygon class="st5" points="13,14.7 13.1,15.3 13.6,14.8 		"/>
		<polygon class="st5" points="12.8,14.4 12.4,14.2 12.3,14.6 		"/>
		<polygon class="st4" points="12.4,14.2 12.1,14 12.3,14.6 		"/>
		<polygon class="st3" points="17.7,10.2 16,11.5 16,9.4 		"/>
		<polygon class="st4" points="17.7,13 16,11.5 18.3,11.6 		"/>
		<polygon class="st5" points="15.9,12.2 16,11.5 17.7,13 		"/>
		<polygon class="st6" points="18.3,11.6 16,11.5 17.7,10.2 		"/>
		<polygon class="st4" points="15,13.3 15.2,12.6 16.2,13.6 		"/>
		<polygon class="st6" points="15.2,12.6 15.9,12.2 16.2,13.6 		"/>
		<polygon class="st3" points="16.2,13.6 15.9,12.2 17.7,13 		"/>
		<polygon class="st5" points="14.5,12.4 15.2,12.6 15,13.3 		"/>
		<polygon class="st6" points="14.4,11.1 14.3,9.6 15.4,11 		"/>
		<polygon class="st3" points="12.9,10.6 14.3,9.6 14.4,11.1 		"/>
		<polygon class="st4" points="14.3,9.6 16,9.4 15.4,11 		"/>
		<polygon class="st3" points="12.1,12.6 12.3,11.8 13.2,12.6 		"/>
		<polygon class="st5" points="16,9.4 16,11.5 15.4,11 		"/>
		<polygon class="st6" points="13.2,12.6 12.3,11.8 13.4,11.8 		"/>
		<polygon class="st4" points="12.3,11.8 12.9,10.6 13.4,11.8 		"/>
		<polygon class="st5" points="13.4,11.8 12.9,10.6 14.4,11.1 		"/>
		<polygon class="st5" points="13.2,12.6 12.5,13.2 12.1,12.6 		"/>
		<polygon class="st4" points="12.5,13.2 12.1,13.9 12.1,12.6 		"/>
		<polygon class="st6" points="10,6.4 12,11.9 12,7 		"/>
		<polygon class="st3" points="14,6.4 12,11.9 12,7 		"/>
		<path class="st4" d="M10,6.4L10,6.4L12,7V5.3C11.2,5.2,10.4,5.7,10,6.4z"/>
		<path class="st5" d="M12,5.3V7l2-0.6l0,0C13.6,5.7,12.8,5.2,12,5.3z"/>
	</g>
</g>
</svg>
