<?xml version="1.0" encoding="utf-8"?>
<!-- Generator: Adobe Illustrator 24.2.3, SVG Export Plug-In . SVG Version: 6.00 Build 0)  -->
<svg version="1.1" id="Calque_1" shape-rendering="geometricPrecision"
	 xmlns="http://www.w3.org/2000/svg" xmlns:xlink="http://www.w3.org/1999/xlink" x="0px" y="0px" viewBox="0 0 24 24"
	 style="enable-background:new 0 0 24 24;" xml:space="preserve">
<style type="text/css">
	.st0{fill:#FFFFFF;}
</style>
<desc>Created with Sketch.</desc>
<g>
	<g>
		<g>
			<g>
				<path class="st0" d="M16.5,18.3c0,0-3.6,2-6,0.7l0.8-0.8c0.1-0.1,0.1-0.2,0.1-0.3c0-0.1-0.1-0.2-0.3-0.2H7.3
					c-0.2,0-0.3,0.1-0.3,0.3v3.8c0,0.1,0.1,0.2,0.2,0.3c0.1,0,0.2,0,0.3-0.1L8.5,21c1,0.4,5.8,1.8,8.4-2.4c0.1-0.1,0.1-0.2,0-0.3
					C16.8,18.2,16.6,18.2,16.5,18.3z M8.5,20.4c-0.1,0-0.2,0-0.3,0.1l-0.6,0.6v-2.8h2.8l-0.6,0.6c-0.1,0.1-0.1,0.1-0.1,0.2
					c0,0.1,0,0.2,0.1,0.2c1.9,1.3,4.4,0.6,5.8,0C13,22.3,8.7,20.5,8.5,20.4z"/>
			</g>
			<g>
				<path class="st0" d="M7.5,5.7c0,0,3.6-2,6-0.7l-0.8,0.8c-0.1,0.1-0.1,0.2-0.1,0.3c0,0.1,0.1,0.2,0.3,0.2h3.8
					c0.2,0,0.3-0.1,0.3-0.3V2.3c0-0.1-0.1-0.2-0.2-0.3c0,0-0.1,0-0.1,0c-0.1,0-0.1,0-0.2,0.1L15.5,3c-1-0.4-5.8-1.8-8.4,2.4
					C7,5.5,7.1,5.6,7.1,5.7C7.2,5.8,7.4,5.8,7.5,5.7z M15.5,3.6c0.1,0,0.2,0,0.3-0.1l0.6-0.6v2.8h-2.8l0.6-0.6
					c0.1-0.1,0.1-0.1,0.1-0.2c0-0.1,0-0.2-0.1-0.2c-1.9-1.3-4.4-0.6-5.8,0C11,1.7,15.3,3.5,15.5,3.6z"/>
			</g>
		</g>
	</g>
	<g>
		<path class="st0" d="M14.1,11L12,13.7l-1-1.1c-0.1-0.1-0.4-0.2-0.5,0c-0.1,0.1-0.2,0.4,0,0.5l1.3,1.5c0.1,0.1,0.2,0.1,0.3,0.1
			c0,0,0,0,0,0c0.1,0,0.2-0.1,0.3-0.2l2.4-3.1c0.1-0.2,0.1-0.4-0.1-0.5C14.5,10.8,14.2,10.8,14.1,11z"/>
		<path class="st0" d="M12,8L8.4,9.7v4.2L12,16l3.6-2.1V9.7L12,8z M15,9.9l-3,1.4L9,9.9l3-1.5L15,9.9z M12,15.5l-3.2-1.8v-3.6
			l3.2,1.6l3.2-1.5v3.5L12,15.5z"/>
	</g>
</g>
</svg>
