<?xml version="1.0" encoding="utf-8"?>
<!-- Generator: Adobe Illustrator 24.2.3, SVG Export Plug-In . SVG Version: 6.00 Build 0)  -->
<svg version="1.1" id="Calque_1" xmlns="http://www.w3.org/2000/svg" xmlns:xlink="http://www.w3.org/1999/xlink" x="0px" y="0px"
	 viewBox="0 0 24 24" style="enable-background:new 0 0 24 24;" xml:space="preserve">
<style type="text/css">
	.st0{fill:#9013FE;}
</style>
<desc>Created with Sketch.</desc>
<g>
	<g>
		<path class="st0" d="M18.7,7C18.7,7,18.7,6.9,18.7,7C18.7,6.9,18.7,6.9,18.7,7c0-0.1,0-0.1-0.1-0.2l0,0l-2.8-2.8h0
			c0,0,0,0-0.1-0.1c0,0,0,0,0,0c0,0,0,0-0.1,0c0,0,0,0,0,0H7.1C6.9,4,6.8,4.1,6.8,4.2v1.1H5.5c-0.1,0-0.2,0.1-0.2,0.2v14.2
			c0,0.1,0.1,0.2,0.2,0.2h11.4c0.1,0,0.2-0.1,0.2-0.2v-1.1h1.3c0.1,0,0.2-0.1,0.2-0.2L18.7,7C18.7,7,18.7,7,18.7,7z M17.9,6.8h-1.9
			V4.8L17.9,6.8z M16.7,19.5H5.8V5.8h1v12.6c0,0.1,0.1,0.2,0.2,0.2h9.6V19.5z M18.2,18.2H7.3V4.5h8.2V7c0,0.1,0.1,0.2,0.2,0.2h2.5
			V18.2z"/>
	</g>
	<g>
		<path class="st0" d="M9.2,7.3h4.2c0.1,0,0.2-0.1,0.2-0.2c0-0.1-0.1-0.2-0.2-0.2H9.2C9.1,6.8,9,6.9,9,7C9,7.1,9.1,7.3,9.2,7.3z"/>
	</g>
	<g>
		<path class="st0" d="M9,8.7c0,0.1,0.1,0.2,0.2,0.2h7.2c0.1,0,0.2-0.1,0.2-0.2c0-0.1-0.1-0.2-0.2-0.2H9.2C9.1,8.5,9,8.6,9,8.7z"/>
	</g>
	<g>
		<path class="st0" d="M9.2,10.6h6.4c0.1,0,0.2-0.1,0.2-0.2c0-0.1-0.1-0.2-0.2-0.2H9.2c-0.1,0-0.2,0.1-0.2,0.2
			C9,10.5,9.1,10.6,9.2,10.6z"/>
	</g>
	<g>
		<path class="st0" d="M9.2,12.3H12c0.1,0,0.2-0.1,0.2-0.2c0-0.1-0.1-0.2-0.2-0.2H9.2C9.1,11.9,9,12,9,12.1
			C9,12.2,9.1,12.3,9.2,12.3z"/>
	</g>
	<g>
		<path class="st0" d="M16.4,11.9h-3c-0.1,0-0.2,0.1-0.2,0.2c0,0.1,0.1,0.2,0.2,0.2h3c0.1,0,0.2-0.1,0.2-0.2
			C16.6,12,16.5,11.9,16.4,11.9z"/>
	</g>
	<g>
		<path class="st0" d="M9.2,14h5.7c0.1,0,0.2-0.1,0.2-0.2c0-0.1-0.1-0.2-0.2-0.2H9.2c-0.1,0-0.2,0.1-0.2,0.2C9,13.9,9.1,14,9.2,14z"
			/>
	</g>
	<g>
		<path class="st0" d="M11.8,15.2H9.2c-0.1,0-0.2,0.1-0.2,0.2s0.1,0.2,0.2,0.2h2.5c0.1,0,0.2-0.1,0.2-0.2S11.9,15.2,11.8,15.2z"/>
	</g>
	<g>
		<path class="st0" d="M16.4,15.2h-1.6c-0.1,0-0.2,0.1-0.2,0.2s0.1,0.2,0.2,0.2h1.6c0.1,0,0.2-0.1,0.2-0.2S16.5,15.2,16.4,15.2z"/>
	</g>
</g>
</svg>
