<?xml version="1.0" encoding="utf-8"?>
<!-- Generator: Adobe Illustrator 24.2.3, SVG Export Plug-In . SVG Version: 6.00 Build 0)  -->
<svg version="1.1" id="Calque_1" xmlns="http://www.w3.org/2000/svg" xmlns:xlink="http://www.w3.org/1999/xlink" x="0px" y="0px"
	 viewBox="0 0 24 24" style="enable-background:new 0 0 24 24;" xml:space="preserve">
<style type="text/css">
	.st0{fill:#FFFFFF;}
</style>
<desc>Created with Sketch.</desc>
<g>
	<g>
		<path class="st0" d="M19.9,11.6c-0.1-0.1-0.3-0.1-0.4,0.1c-0.1,0.1-0.1,0.3,0.1,0.4c1.2,0.8,1.9,2,1.9,3.2c0,1.2-0.6,2.2-1.6,3
			c-0.1,0.1-0.1,0.1-0.1,0.2l-0.1,1.7l-1.9-0.9c-0.1,0-0.1,0-0.2,0c-0.5,0.1-1,0.2-1.5,0.2c-2,0-3.9-0.9-4.8-2.3
			c-0.1-0.1-0.3-0.2-0.4-0.1c-0.1,0.1-0.2,0.3-0.1,0.4c1.1,1.6,3.1,2.5,5.3,2.5c0.5,0,1,0,1.5-0.2l2.2,1c0,0,0.1,0,0.1,0
			c0.1,0,0.1,0,0.2,0c0.1-0.1,0.1-0.1,0.1-0.2l0.1-2c1.1-0.9,1.8-2.1,1.8-3.4C22,13.9,21.2,12.5,19.9,11.6z"/>
	</g>
	<g>
		<path class="st0" d="M16.4,15.2c0,0.3-0.2,0.5-0.5,0.5c-0.1,0-0.1,0-0.2,0c-0.2-0.1-0.3,0-0.4,0.2c-0.1,0.2,0,0.3,0.1,0.4
			c0.1,0.1,0.3,0.1,0.4,0.1c0.6,0,1.1-0.5,1.1-1.1c0-0.2-0.1-0.3-0.3-0.3C16.5,14.9,16.4,15.1,16.4,15.2z"/>
	</g>
	<g>
		<path class="st0" d="M18.2,15.2c0,0.6,0.5,1.1,1.1,1.1c0.6,0,1.1-0.5,1.1-1.1s-0.5-1.1-1.1-1.1C18.6,14.2,18.2,14.7,18.2,15.2z
			 M19.2,14.8c0.3,0,0.5,0.2,0.5,0.4c0,0.3-0.2,0.5-0.5,0.5c-0.3,0-0.5-0.2-0.5-0.5C18.8,15,19,14.8,19.2,14.8z"/>
	</g>
	<g>
		<path class="st0" d="M19,9.7c0-3.8-3.8-6.8-8.5-6.8S2,6,2,9.7c0,1.8,0.9,3.5,2.5,4.8l0.2,3c0,0.1,0.1,0.2,0.1,0.2c0,0,0.1,0,0.2,0
			c0,0,0.1,0,0.1,0l3.2-1.5c0.7,0.1,1.4,0.2,2.2,0.2C15.2,16.5,19,13.5,19,9.7z M10.5,15.9c-0.7,0-1.4-0.1-2.1-0.2
			c-0.1,0-0.1,0-0.2,0L5.3,17l-0.2-2.7c0-0.1,0-0.2-0.1-0.2C3.5,13,2.6,11.4,2.6,9.7c0-3.4,3.5-6.2,7.9-6.2c4.3,0,7.9,2.8,7.9,6.2
			C18.4,13.1,14.8,15.9,10.5,15.9z"/>
	</g>
	<g>
		<path class="st0" d="M10.5,8.7c-0.7,0-1.2,0.5-1.2,1.2c0,0.7,0.5,1.2,1.2,1.2c0.7,0,1.2-0.5,1.2-1.2C11.7,9.2,11.2,8.7,10.5,8.7z
			 M10.5,10.5c-0.3,0-0.6-0.3-0.6-0.6c0-0.3,0.3-0.6,0.6-0.6c0.3,0,0.6,0.3,0.6,0.6C11.1,10.3,10.8,10.5,10.5,10.5z"/>
	</g>
	<g>
		<path class="st0" d="M6.6,8.7c-0.7,0-1.2,0.5-1.2,1.2c0,0.7,0.5,1.2,1.2,1.2c0.7,0,1.2-0.5,1.2-1.2C7.8,9.2,7.2,8.7,6.6,8.7z
			 M6.6,10.5c-0.3,0-0.6-0.3-0.6-0.6c0-0.3,0.3-0.6,0.6-0.6c0.3,0,0.6,0.3,0.6,0.6C7.2,10.3,6.9,10.5,6.6,10.5z"/>
	</g>
	<g>
		<path class="st0" d="M14.4,8.7c-0.7,0-1.2,0.5-1.2,1.2c0,0.7,0.5,1.2,1.2,1.2c0.7,0,1.2-0.5,1.2-1.2C15.6,9.2,15.1,8.7,14.4,8.7z
			 M14.4,10.5c-0.3,0-0.6-0.3-0.6-0.6c0-0.3,0.3-0.6,0.6-0.6c0.3,0,0.6,0.3,0.6,0.6C15,10.3,14.8,10.5,14.4,10.5z"/>
	</g>
</g>
</svg>
