<?xml version="1.0" encoding="utf-8"?>
<!-- Generator: Adobe Illustrator 24.2.3, SVG Export Plug-In . SVG Version: 6.00 Build 0)  -->
<svg version="1.1" id="ic_error_connection" shape-rendering="geometricPrecision"
	 xmlns="http://www.w3.org/2000/svg" xmlns:xlink="http://www.w3.org/1999/xlink" x="0px" y="0px" viewBox="0 0 24 24"
	 style="enable-background:new 0 0 24 24;" xml:space="preserve">
<style type="text/css">
	.st0{fill:none;}
	.st1{fill:#7A7A7C;}
</style>
<path id="Rectangle_4409" class="st0" d="M0,0h24v24H0V0z"/>
<g>
	<path class="st1" d="M7.5,2.1l0,0.9c7.7,1.2,13.6,7.9,13.6,16c0,0.8-0.1,1.6-0.2,2.4c0,0.2,0.1,0.5,0.4,0.5c0,0,0,0,0.1,0
		c0.2,0,0.4-0.2,0.4-0.4c0.1-0.8,0.2-1.7,0.2-2.6C22,10.4,15.7,3.4,7.5,2.1z"/>
	<path class="st1" d="M16.3,18.9c0,0.8-0.1,1.6-0.3,2.4c0,0.2,0.1,0.5,0.3,0.5c0,0,0.1,0,0.1,0c0.2,0,0.4-0.1,0.4-0.3
		c0.2-0.9,0.3-1.7,0.3-2.6c0-6-4.3-10.9-9.9-12l0,0.9C12.4,8.8,16.3,13.4,16.3,18.9z"/>
	<path class="st1" d="M11.5,18.9c0,0.8-0.1,1.6-0.4,2.4c-0.1,0.2,0,0.5,0.2,0.6c0.1,0,0.1,0,0.2,0c0.2,0,0.3-0.1,0.4-0.3
		c0.3-0.8,0.5-1.7,0.5-2.7c0-3.4-2.3-6.2-5.3-7.1l-0.1,0.9C9.6,13.6,11.5,16,11.5,18.9z"/>
	<path class="st1" d="M4.6,16.7c-1.4,0-2.6,1.2-2.6,2.6c0,1.4,1.2,2.6,2.6,2.6c1.4,0,2.6-1.2,2.6-2.6C7.2,17.9,6,16.7,4.6,16.7z"/>
	<polygon class="st1" points="2.6,2.1 3.3,15 5.8,15 6.6,2.1 	"/>
</g>
</svg>
