<?xml version="1.0" encoding="utf-8"?>
<!-- Generator: Adobe Illustrator 24.2.3, SVG Export Plug-In . SVG Version: 6.00 Build 0)  -->
<svg version="1.1" id="ic_connect" xmlns="http://www.w3.org/2000/svg" xmlns:xlink="http://www.w3.org/1999/xlink" x="0px" y="0px"
	 viewBox="0 0 24 24" style="enable-background:new 0 0 24 24;" xml:space="preserve">
<style type="text/css">
	.st0{fill:none;}
	.st1{fill:#FFFFFF;}
</style>
<path id="Rectangle_4416" class="st0" d="M0,0h24v24H0V0z"/>
<g>
	<g>
		<path class="st1" d="M21.4,22C21.4,22,21.3,22,21.4,22c-0.3,0-0.5-0.3-0.4-0.5c0.1-0.8,0.2-1.6,0.2-2.4c0-8.9-7.3-16.2-16.2-16.2
			c-0.8,0-1.7,0.1-2.5,0.2C2.3,3.1,2,2.9,2,2.7c0-0.2,0.1-0.5,0.4-0.5C3.2,2.1,4.1,2,5,2c9.4,0,17,7.6,17,17c0,0.9-0.1,1.7-0.2,2.6
			C21.8,21.8,21.6,22,21.4,22z"/>
	</g>
	<g>
		<path class="st1" d="M16.5,22C16.5,22,16.4,22,16.5,22c-0.3-0.1-0.5-0.3-0.4-0.5c0.2-0.8,0.3-1.6,0.3-2.4
			c0-6.3-5.1-11.4-11.4-11.4c-0.8,0-1.6,0.1-2.4,0.3C2.3,8,2.1,7.8,2,7.6c0-0.2,0.1-0.5,0.3-0.5C3.2,6.9,4.1,6.8,5,6.8
			c6.8,0,12.2,5.5,12.2,12.2c0,0.9-0.1,1.8-0.3,2.6C16.9,21.8,16.7,22,16.5,22z"/>
	</g>
	<g>
		<path class="st1" d="M11.4,22c-0.1,0-0.1,0-0.2,0c-0.2-0.1-0.3-0.3-0.2-0.6c0.3-0.7,0.4-1.5,0.4-2.4c0-3.6-2.9-6.5-6.5-6.5
			c-0.8,0-1.6,0.2-2.4,0.4c-0.2,0.1-0.5,0-0.6-0.2c-0.1-0.2,0-0.5,0.2-0.6C3.1,11.8,4,11.7,5,11.7c4.1,0,7.4,3.3,7.4,7.4
			c0,0.9-0.2,1.8-0.5,2.7C11.8,21.9,11.6,22,11.4,22z"/>
	</g>
	<g>
		<circle class="st1" cx="4.6" cy="19.4" r="2.6"/>
	</g>
</g>
</svg>
