<?xml version="1.0" encoding="utf-8"?>
<!-- Generator: Adobe Illustrator 24.2.3, SVG Export Plug-In . SVG Version: 6.00 Build 0)  -->
<svg version="1.1" id="Calque_1" xmlns="http://www.w3.org/2000/svg" xmlns:xlink="http://www.w3.org/1999/xlink" x="0px" y="0px"
	 viewBox="0 0 24 24" style="enable-background:new 0 0 24 24;" xml:space="preserve">
<style type="text/css">
	.st0{fill:#FFFFFF;}
</style>
<desc>Created with Sketch.</desc>
<g>
	<g>
		<path class="st0" d="M20.4,5.7C20.4,5.7,20.4,5.7,20.4,5.7c0-0.1,0-0.1,0-0.1c0,0,0-0.1-0.1-0.1l0,0l-3.5-3.5h0c0,0-0.1,0-0.1-0.1
			c0,0,0,0,0,0c0,0-0.1,0-0.1,0c0,0,0,0,0,0H5.8C5.7,2,5.5,2.1,5.5,2.3v1.3H3.9c-0.2,0-0.3,0.1-0.3,0.3v17.8c0,0.2,0.1,0.3,0.3,0.3
			h14.3c0.2,0,0.3-0.1,0.3-0.3v-1.3h1.6c0.2,0,0.3-0.1,0.3-0.3L20.4,5.7C20.4,5.8,20.4,5.7,20.4,5.7z M19.4,5.5h-2.4V3L19.4,5.5z
			 M17.9,21.4H4.2V4.2h1.3V20c0,0.2,0.1,0.3,0.3,0.3h12V21.4z M19.8,19.7H6.1V2.6h10.2v3.2c0,0.2,0.1,0.3,0.3,0.3h3.2V19.7z"/>
	</g>
	<g>
		<path class="st0" d="M8.5,6.1h5.3c0.2,0,0.3-0.1,0.3-0.3c0-0.2-0.1-0.3-0.3-0.3H8.5c-0.2,0-0.3,0.1-0.3,0.3
			C8.2,5.9,8.4,6.1,8.5,6.1z"/>
	</g>
	<g>
		<path class="st0" d="M8.2,7.9c0,0.2,0.1,0.3,0.3,0.3h8.9c0.2,0,0.3-0.1,0.3-0.3c0-0.2-0.1-0.3-0.3-0.3H8.5
			C8.4,7.6,8.2,7.7,8.2,7.9z"/>
	</g>
	<g>
		<path class="st0" d="M8.5,10.3h8c0.2,0,0.3-0.1,0.3-0.3c0-0.2-0.1-0.3-0.3-0.3h-8c-0.2,0-0.3,0.1-0.3,0.3
			C8.2,10.2,8.4,10.3,8.5,10.3z"/>
	</g>
	<g>
		<path class="st0" d="M8.5,12.4H12c0.2,0,0.3-0.1,0.3-0.3c0-0.2-0.1-0.3-0.3-0.3H8.5c-0.2,0-0.3,0.1-0.3,0.3
			C8.2,12.3,8.4,12.4,8.5,12.4z"/>
	</g>
	<g>
		<path class="st0" d="M17.5,11.8h-3.8c-0.2,0-0.3,0.1-0.3,0.3c0,0.2,0.1,0.3,0.3,0.3h3.8c0.2,0,0.3-0.1,0.3-0.3
			C17.8,12,17.6,11.8,17.5,11.8z"/>
	</g>
	<g>
		<path class="st0" d="M8.5,14.5h7.1c0.2,0,0.3-0.1,0.3-0.3c0-0.2-0.1-0.3-0.3-0.3H8.5c-0.2,0-0.3,0.1-0.3,0.3
			C8.2,14.4,8.4,14.5,8.5,14.5z"/>
	</g>
	<g>
		<path class="st0" d="M11.7,16.1H8.5c-0.2,0-0.3,0.1-0.3,0.3c0,0.2,0.1,0.3,0.3,0.3h3.2c0.2,0,0.3-0.1,0.3-0.3
			C12,16.2,11.9,16.1,11.7,16.1z"/>
	</g>
	<g>
		<path class="st0" d="M17.5,16.1h-2c-0.2,0-0.3,0.1-0.3,0.3c0,0.2,0.1,0.3,0.3,0.3h2c0.2,0,0.3-0.1,0.3-0.3
			C17.8,16.2,17.6,16.1,17.5,16.1z"/>
	</g>
</g>
</svg>
