<?xml version="1.0" encoding="utf-8"?>
<!-- Generator: Adobe Illustrator 24.2.3, SVG Export Plug-In . SVG Version: 6.00 Build 0)  -->
<svg version="1.1" id="ic-transaction-staked" xmlns="http://www.w3.org/2000/svg" xmlns:xlink="http://www.w3.org/1999/xlink"
	 x="0px" y="0px" viewBox="0 0 24 24" style="enable-background:new 0 0 24 24;" xml:space="preserve">
<style type="text/css">
	.st0{fill:none;}
	.st1{fill:#7A7A7C;}
</style>
<path id="Rectangle_4527" class="st0" d="M0,0h24v24H0V0z"/>
<g>
	<path class="st1" d="M21.7,7.2h-5.3c0.7-0.5,1.1-1.3,1.1-2.2c0-1.6-1.3-2.9-2.9-2.9c-1.3,0-2.4,0.9-2.8,2c-0.4-0.5-1.1-0.9-1.8-0.9
		c-1.3,0-2.3,1-2.3,2.3c0,0.7,0.3,1.2,0.7,1.7H2.3c-0.5,0-1,0.4-1,1v1.9c0,0.5,0.4,1,1,1v10c0,0.5,0.4,1,1,1h7.8h1.8h7.8
		c0.5,0,1-0.4,1-1V11c0.5,0,1-0.4,1-1V8.1C22.6,7.6,22.2,7.2,21.7,7.2z M12.3,4.9c0-1.2,1-2.3,2.3-2.3c1.2,0,2.3,1,2.3,2.3
		c0,1.2-1,2.2-2.3,2.2h-1.7h-0.6V5.5V4.9z M12.6,10.4h-1.1V7.8H12h0.6V10.4z M8.3,5.5c0-0.9,0.7-1.7,1.7-1.7c0.9,0,1.7,0.7,1.7,1.7
		v1.7h-0.6H10C9.1,7.2,8.3,6.4,8.3,5.5z M2,10.1V8.1C2,8,2.1,7.8,2.3,7.8H10h0.8v2.6H2.6H2.3C2.1,10.4,2,10.2,2,10.1z M3,21V11h7.8
		v10.3H3.3C3.1,21.4,3,21.2,3,21z M11.4,21.4V11h1.1v10.3H11.4z M21,21c0,0.2-0.1,0.3-0.3,0.3h-7.5V11H21V21z M22,10.1
		c0,0.2-0.1,0.3-0.3,0.3h-0.3h-8.1V7.8h1.4h7.1C21.9,7.8,22,8,22,8.1V10.1z"/>
</g>
</svg>
