<?xml version="1.0" encoding="utf-8"?>
<!-- Generator: Adobe Illustrator 24.2.3, SVG Export Plug-In . SVG Version: 6.00 Build 0)  -->
<svg version="1.1" id="Calque_1" xmlns="http://www.w3.org/2000/svg" xmlns:xlink="http://www.w3.org/1999/xlink" x="0px" y="0px"
	 viewBox="0 0 18 17" style="enable-background:new 0 0 18 17;" xml:space="preserve">
<style type="text/css">
	.st0{fill:none;}
	.st1{opacity:0.6955;fill-rule:evenodd;clip-rule:evenodd;fill:#FFFFFF;enable-background:new    ;}
</style>
<desc>Created with Sketch.</desc>
<g id="Page-1">
	<g id="ic-close-white" transform="translate(-1.000000, -2.000000)">
		<g id="ic_close">
			<polygon id="Rectangle_3745" class="st0" points="0,0.5 20,0.5 20,20.5 0,20.5 			"/>
			<path id="Path_18563" class="st1" d="M17.8,17.3l-6.7-6.8l6.7-6.8l0.5-0.5l-0.5-0.5c-0.3-0.3-0.8-0.3-1.1,0L10,9.4L3.3,2.7
				C3,2.4,2.5,2.4,2.2,2.7L1.7,3.2l0.5,0.5l6.7,6.8l-6.7,6.8c-0.3,0.3-0.3,0.8,0,1.1l0.5,0.5l0.5-0.5l6.7-6.8l6.7,6.8l0.5,0.5
				l0.5-0.5C18.1,18,18.1,17.5,17.8,17.3z"/>
		</g>
	</g>
</g>
</svg>
