<?xml version="1.0" encoding="utf-8"?>
<!-- Generator: Adobe Illustrator 24.2.3, SVG Export Plug-In . SVG Version: 6.00 Build 0)  -->
<svg version="1.1" id="Calque_1" xmlns="http://www.w3.org/2000/svg" xmlns:xlink="http://www.w3.org/1999/xlink" x="0px" y="0px"
	 viewBox="0 0 50 40" style="enable-background:new 0 0 50 40;" xml:space="preserve">
<style type="text/css">
	.st0{fill:#7A7A7C;}
</style>
<desc>Created with Sketch.</desc>
<g>
	<g>
		<path class="st0" d="M28.2,27.8c1,0,1.8-0.8,1.8-1.8v-4.4v-3.5v-2.4c0-1-0.8-1.8-1.8-1.8H19c-0.2,0-0.4-0.1-0.5-0.3l-0.7-1
			c-0.2-0.3-0.6-0.5-1-0.5h-4.7C11,12,10,13,10,14.1v5.5v2.2v4.1c0,1,0.8,1.8,1.8,1.8H28.2z M29.4,25.9c0,0.7-0.5,1.2-1.2,1.2H11.8
			c-0.7,0-1.2-0.5-1.2-1.2v-4.1v-2.3c0-0.7,0.5-1.2,1.2-1.2H21c0.4,0,0.8-0.2,1-0.5l0.7-1c0.1-0.2,0.3-0.3,0.5-0.3h4.7
			c0.8,0,1.5,0.7,1.5,1.5v3.3V25.9z M27.9,15.9h-4.7c-0.4,0-0.8,0.2-1,0.5l-0.7,1c-0.1,0.2-0.3,0.3-0.5,0.3h-9.2
			c-0.5,0-0.9,0.2-1.2,0.5v-4.1c0-0.8,0.7-1.5,1.5-1.5h4.7c0.2,0,0.4,0.1,0.5,0.3l0.7,1c0.2,0.3,0.6,0.5,1,0.5h9.2
			c0.7,0,1.2,0.5,1.2,1.2v0.9C29,16.2,28.5,15.9,27.9,15.9z"/>
	</g>
	<g>
		<path class="st0" d="M16.2,13.8h-3.7c-0.2,0-0.3,0.1-0.3,0.3c0,0.2,0.1,0.3,0.3,0.3h3.7c0.2,0,0.3-0.1,0.3-0.3
			C16.5,14,16.4,13.8,16.2,13.8z"/>
	</g>
	<g>
		<path class="st0" d="M27.5,17.8h-3.7c-0.2,0-0.3,0.1-0.3,0.3c0,0.2,0.1,0.3,0.3,0.3h3.7c0.2,0,0.3-0.1,0.3-0.3
			C27.9,17.9,27.7,17.8,27.5,17.8z"/>
	</g>
</g>
</svg>
