<?xml version="1.0" encoding="utf-8"?>
<!-- Generator: Adobe Illustrator 24.2.3, SVG Export Plug-In . SVG Version: 6.00 Build 0)  -->
<svg version="1.1" id="Calque_1" xmlns="http://www.w3.org/2000/svg" xmlns:xlink="http://www.w3.org/1999/xlink" x="0px" y="0px"
	 viewBox="0 0 24 24" style="enable-background:new 0 0 24 24;" xml:space="preserve">
<style type="text/css">
	.st0{fill:#B088FF;}
</style>
<desc>Created with Sketch.</desc>
<g id="Groupe_112" transform="translate(-627.141 -449.724)">
	<g id="Groupe_110" transform="translate(627.456 449.987)">
		<path id="Tracé_349" class="st0" d="M19.6,6.4L19.2,6l-0.2-0.2c1-1.4,0.9-1.8,0.7-2.1l0,0c-0.2-0.2-0.6-0.3-2.1,0.7l-0.2-0.2
			c-0.1-0.1-0.2-0.1-0.3,0c-0.6,0.4-1.2,0.8-1.8,1.3l0,0c-1.5,1.2-2.9,2.4-4.2,3.8c-2.9,3.1-5.5,6.6-7.5,10.3
			c-0.1,0.1,0,0.3,0.1,0.3c0.1,0,0.2,0,0.2,0c1.7-1,3.4-2,5.1-3.2h0l0,0c1.9-1.3,3.6-2.8,5.2-4.3c1.3-1.3,2.6-2.7,3.8-4.2l0,0
			c0.4-0.6,0.8-1.1,1.1-1.6l0.2,0.2c0.2,0.2,0.2,0.5,0.2,0.7c-0.4,1.1-1.6,2.7-3.5,4.7c-0.1,0.1-0.1,0.3,0,0.4
			c0.1,0.1,0.3,0.1,0.4,0l0,0c1.9-2,3.2-3.8,3.6-4.9C20,7.2,19.9,6.7,19.6,6.4z M19.3,4.1c0,0.1-0.1,0.4-0.7,1.3l-0.6-0.6
			C18.8,4.2,19.2,4.1,19.3,4.1L19.3,4.1z M6.4,17.7l-0.8-0.8C6,16.3,6.4,15.7,6.9,15l1.4,1.4C7.7,16.9,7,17.4,6.4,17.7L6.4,17.7z
			 M5.4,17.3L6,18c-0.7,0.4-1.2,0.7-1.6,1C4.6,18.6,4.9,18,5.4,17.3L5.4,17.3z M13.8,12c-1.6,1.5-3.2,2.9-5,4.2l-1.5-1.5
			c1.3-1.8,2.7-3.5,4.2-5c1.3-1.3,2.6-2.5,4-3.6l2,2C16.3,9.4,15.1,10.7,13.8,12L13.8,12z M17.7,7.6l-1.9-1.9c0.5-0.4,0.9-0.7,1.4-1
			l0.2,0.2l1,1l0.2,0.2C18.4,6.6,18.1,7.1,17.7,7.6L17.7,7.6z"/>
	</g>
	<g id="Groupe_111" transform="translate(635.568 456.311)">
		<path id="Tracé_350" class="st0" d="M7.7,1.3c-0.1-0.1-0.3-0.1-0.4,0c0,0,0,0,0,0L0.5,8.1c-0.1,0.1-0.1,0.3,0,0.4s0.3,0.1,0.4,0
			l6.9-6.9C7.8,1.5,7.8,1.4,7.7,1.3C7.7,1.3,7.7,1.3,7.7,1.3z"/>
	</g>
</g>
</svg>
