<?xml version="1.0" encoding="utf-8"?>
<!-- Generator: Adobe Illustrator 24.2.3, SVG Export Plug-In . SVG Version: 6.00 Build 0)  -->
<svg version="1.1" id="Calque_1" xmlns="http://www.w3.org/2000/svg" xmlns:xlink="http://www.w3.org/1999/xlink" x="0px" y="0px"
	 viewBox="0 0 24 40" style="enable-background:new 0 0 24 40;" xml:space="preserve">
<style type="text/css">
	.st0{fill:#9013FE;}
</style>
<desc>Created with Sketch.</desc>
<g>
	<path class="st0" d="M22.3,25l-1.1-0.3c0-0.5,0-1,0-1.4l1.1-0.3c0.2-0.1,0.4-0.2,0.5-0.4c0.1-0.2,0.1-0.4,0.1-0.7l-0.4-1.6
		c-0.1-0.5-0.6-0.7-1.1-0.6L20.3,20c-0.2-0.4-0.4-0.9-0.7-1.3l0.8-0.8c0.2-0.2,0.3-0.4,0.3-0.6c0-0.2-0.1-0.5-0.3-0.6l-1.1-1.1
		c-0.3-0.3-0.9-0.3-1.2,0l-0.8,0.8c-0.4-0.3-0.8-0.5-1.3-0.7l0.3-1.1c0.1-0.5-0.2-1-0.6-1.1L14.1,13c-0.5-0.1-1,0.2-1.1,0.6
		l-0.3,1.1c-0.5,0-1,0-1.4,0L11,13.7c-0.1-0.2-0.2-0.4-0.4-0.5S10.1,13,9.9,13l-1.6,0.4c-0.5,0.1-0.7,0.6-0.6,1.1L8,15.7
		c-0.4,0.2-0.9,0.5-1.3,0.7l-0.8-0.8c-0.3-0.3-0.9-0.3-1.2,0l-1.1,1.1c-0.3,0.3-0.3,0.9,0,1.2l0.8,0.8c-0.3,0.4-0.5,0.8-0.7,1.3
		l-1.1-0.3c-0.5-0.1-1,0.1-1.1,0.6L1,21.9c-0.1,0.2,0,0.5,0.1,0.7c0.1,0.2,0.3,0.3,0.5,0.4l1.1,0.3c0,0.5,0,1,0,1.4L1.7,25
		c-0.2,0.1-0.4,0.2-0.5,0.4C1,25.6,1,25.9,1,26.1l0.4,1.6c0.1,0.5,0.6,0.8,1.1,0.6l1.3-0.4c0.1,0,0.1,0,0.1-0.1l2.2-2.2
		c0.1-0.1,0.1-0.2,0.1-0.3c-0.5-2,0.1-4.1,1.6-5.6c1.5-1.5,3.7-2.1,5.7-1.5l-4.3,4.3c-0.1,0.1-0.1,0.2-0.1,0.3c0.5,2,2,3.5,4,4
		c0.1,0,0.2,0,0.3-0.1l4.3-4.3c0.5,2-0.1,4.2-1.5,5.7c-1.5,1.5-3.6,2.1-5.6,1.6c-0.1,0-0.2,0-0.3,0.1L8.2,32c0,0-0.1,0.1-0.1,0.2
		l-0.4,1.3c-0.1,0.2,0,0.5,0.1,0.7c0.1,0.2,0.3,0.3,0.5,0.4L9.9,35c0.1,0,0.2,0,0.2,0c0.1,0,0.3,0,0.4-0.1c0.2-0.1,0.3-0.3,0.4-0.5
		l0.3-1.1c0.5,0,1,0,1.4,0l0.3,1.1c0.1,0.5,0.6,0.7,1.1,0.6l1.6-0.4c0.5-0.1,0.7-0.6,0.6-1.1L16,32.3c0.4-0.2,0.9-0.4,1.3-0.7
		l0.8,0.8c0.3,0.3,0.9,0.3,1.2,0l1.1-1.1c0.2-0.2,0.3-0.4,0.3-0.6c0-0.2-0.1-0.5-0.3-0.6l-0.8-0.8c0.3-0.4,0.5-0.8,0.7-1.2l1.1,0.3
		c0.5,0.1,0.9-0.2,1.1-0.6l0.4-1.6c0.1-0.2,0-0.5-0.1-0.7C22.8,25.2,22.6,25.1,22.3,25z M22.3,25.9l-0.4,1.6c0,0.1-0.1,0.2-0.2,0.1
		l-1.4-0.4c-0.2,0-0.3,0-0.4,0.2c-0.3,0.6-0.6,1.1-0.9,1.6c-0.1,0.1-0.1,0.3,0,0.4l1,1c0,0,0.1,0.1,0.1,0.1c0,0.1,0,0.1-0.1,0.1
		L18.8,32c-0.1,0.1-0.2,0.1-0.3,0l-1-1c-0.1-0.1-0.3-0.1-0.4,0c-0.5,0.4-1,0.7-1.6,0.9c-0.2,0.1-0.2,0.2-0.2,0.4l0.4,1.4
		c0,0.1,0,0.2-0.1,0.2l-1.6,0.4c-0.1,0-0.2,0-0.2-0.1l-0.4-1.4c0-0.1-0.2-0.2-0.3-0.2c0,0,0,0,0,0c-0.6,0.1-1.3,0.1-1.9,0
		c-0.2,0-0.3,0.1-0.4,0.2l-0.4,1.4c0,0.1-0.1,0.2-0.2,0.1l-1.6-0.4c0,0-0.1,0-0.1-0.1c0,0,0-0.1,0-0.2l0.3-1.3l2-2
		c2.2,0.5,4.5-0.2,6.1-1.8c1.8-1.8,2.4-4.5,1.5-6.9c0-0.1-0.1-0.2-0.2-0.2c-0.1,0-0.2,0-0.3,0.1l-4.6,4.6c-1.6-0.5-2.9-1.7-3.3-3.3
		l4.6-4.6c0.1-0.1,0.1-0.2,0.1-0.3c0-0.1-0.1-0.2-0.2-0.2c-2.4-0.9-5.1-0.3-6.9,1.5c-1.6,1.6-2.3,3.9-1.8,6.1l-2,2l-1.3,0.3
		c-0.1,0-0.2,0-0.2-0.1l-0.4-1.6c0-0.1,0-0.2,0.1-0.2l1.4-0.4c0.2,0,0.3-0.2,0.2-0.4c-0.1-0.6-0.1-1.3,0-1.9c0-0.2-0.1-0.3-0.2-0.4
		l-1.4-0.4c-0.1,0-0.2-0.1-0.1-0.2l0.4-1.6c0-0.1,0.1-0.2,0.2-0.1l1.4,0.4c0.2,0,0.3,0,0.4-0.2c0.3-0.6,0.6-1.1,0.9-1.6
		c0.1-0.1,0.1-0.3,0-0.4l-1-1c-0.1-0.1-0.1-0.2,0-0.3L5.2,16C5.3,16,5.4,16,5.5,16l1,1c0.1,0.1,0.3,0.1,0.4,0c0.5-0.4,1-0.7,1.6-0.9
		c0.2-0.1,0.2-0.2,0.2-0.4l-0.4-1.4c0-0.1,0-0.2,0.1-0.3l1.6-0.4c0.1,0,0.2,0,0.2,0.1l0.4,1.4c0,0.2,0.2,0.3,0.4,0.3
		c0.6-0.1,1.3-0.1,1.9,0c0.2,0,0.3-0.1,0.4-0.3l0.4-1.4c0-0.1,0.1-0.2,0.2-0.1l1.6,0.4c0.1,0,0.2,0.1,0.1,0.3l-0.4,1.4
		c0,0.2,0,0.3,0.2,0.4c0.6,0.3,1.1,0.6,1.6,0.9c0.1,0.1,0.3,0.1,0.4,0l1-1c0.1-0.1,0.2-0.1,0.3,0l1.1,1.1c0,0,0.1,0.1,0.1,0.1
		c0,0.1,0,0.1-0.1,0.1l-1,1c-0.1,0.1-0.1,0.3,0,0.4c0.4,0.5,0.7,1,0.9,1.6c0.1,0.2,0.2,0.2,0.4,0.2l1.4-0.4c0.1,0,0.2,0,0.2,0.1
		l0.4,1.6c0,0.1,0,0.2-0.1,0.2l-1.4,0.4c-0.2,0-0.3,0.2-0.3,0.4c0.1,0.6,0.1,1.3,0,1.9c0,0.2,0.1,0.3,0.3,0.4l1.4,0.4
		C22.3,25.7,22.3,25.8,22.3,25.9z"/>
</g>
</svg>
