<?xml version="1.0" encoding="utf-8"?>
<!-- Generator: Adobe Illustrator 24.2.3, SVG Export Plug-In . SVG Version: 6.00 Build 0)  -->
<svg version="1.1" id="Calque_1" xmlns="http://www.w3.org/2000/svg" xmlns:xlink="http://www.w3.org/1999/xlink" x="0px" y="0px"
	 viewBox="0 0 24 40" style="enable-background:new 0 0 24 40;" xml:space="preserve">
<style type="text/css">
	.st0{fill:#9013FE;}
</style>
<desc>Created with Sketch.</desc>
<g>
	<path class="st0" d="M1.1,23.8l3.6,3.7l-0.3,4c0,0,0,0,0,0c0,0,0,0,0,0.1c0,0,0,0,0,0.1c0,0,0,0,0,0c0,0,0,0,0,0l0,0
		c0,0,0,0,0.1,0.1c0,0,0,0,0,0c0,0,0.1,0,0.1,0l4.4,0.1l3.6,3.6c0.1,0.1,0.1,0.1,0.2,0.1c0,0,0,0,0.1,0c0.1,0,0.2-0.1,0.2-0.2l3-6.9
		c3.7-0.4,6.7-3.5,6.7-7.4c0-4.1-3.3-7.4-7.4-7.4c-4.1,0-7.4,3.3-7.4,7.4c0,0.2,0,0.5,0,0.7l-6.9,1.3c-0.1,0-0.2,0.1-0.3,0.2
		C1,23.5,1,23.7,1.1,23.8z M16.6,27.8l3.3-7.6c0-0.1,0-0.2,0-0.3c-0.1-0.1-0.2-0.1-0.3-0.1l-10.7,2c0-0.2,0-0.4,0-0.6
		c0-3.7,3-6.7,6.7-6.7s6.7,3,6.7,6.7C22.3,24.5,19.9,27.3,16.6,27.8z M2,23.7l17.1-3.2l-6.2,14.2l-3.1-3.2l7.9-8.8
		c0.1-0.1,0.1-0.3,0-0.5c-0.1-0.1-0.3-0.1-0.5,0l-8,8.9l-3.4-0.1l9.3-7.1c0.1-0.1,0.2-0.3,0.1-0.5c-0.1-0.1-0.3-0.2-0.5-0.1
		l-9.4,7.2l0.2-3.2l11-5.5c0.2-0.1,0.2-0.3,0.1-0.4c-0.1-0.2-0.3-0.2-0.4-0.1l-11,5.4L2,23.7z"/>
</g>
</svg>
