<?xml version="1.0" encoding="utf-8"?>
<!-- Generator: Adobe Illustrator 24.2.3, SVG Export Plug-In . SVG Version: 6.00 Build 0)  -->
<svg version="1.1" id="Calque_1" xmlns="http://www.w3.org/2000/svg" xmlns:xlink="http://www.w3.org/1999/xlink" x="0px" y="0px"
	 viewBox="0 0 24 40" style="enable-background:new 0 0 24 40;" xml:space="preserve">
<style type="text/css">
	.st0{fill:#FFFFFF;}
</style>
<desc>Created with Sketch.</desc>
<g>
	<g>
		<path class="st0" d="M22.3,18v-2.9c0-0.1-0.1-0.2-0.2-0.3l-1.8-1v-1.5c0-0.2-0.1-0.3-0.3-0.3H4.7H2c-0.2,0-0.3,0.1-0.3,0.3v21.3
			C1.7,33.9,1.8,34,2,34h2.7H20c0.2,0,0.3-0.1,0.3-0.3v-1.5l1.8-1c0.1-0.1,0.2-0.2,0.2-0.3V28c0-0.1-0.1-0.2-0.2-0.3l-0.8-0.4
			l0.8-0.4c0.1-0.1,0.2-0.2,0.2-0.3v-2.9c0-0.1-0.1-0.2-0.2-0.3L21.4,23l0.8-0.4c0.1-0.1,0.2-0.2,0.2-0.3v-2.9
			c0-0.1-0.1-0.2-0.2-0.3l-0.8-0.4l0.8-0.4C22.3,18.2,22.3,18.1,22.3,18z M2.3,12.7h2v20.7h-2C2.3,33.4,2.3,12.7,2.3,12.7z
			 M19.7,33.3H5V12.7h14.7V14v4.3l0,0v4.3v0.1v4.2l0,0v5V33.3z M21.7,30.7l-1.3,0.7v-3.9l1.3,0.7V30.7z M21.7,26.4l-1,0.5l-0.3-0.2
			v-3.6l1.3,0.7V26.4z M21.7,22.1l-1,0.5l-0.3-0.2v-3.6l1.3,0.7V22.1z M21.7,17.8l-1,0.5l-0.3-0.2v-3.6l1.3,0.7V17.8z"/>
	</g>
	<g>
		<path class="st0" d="M15.7,17H9c-0.9,0-1.6,0.7-1.6,1.6v2c0,0.9,0.7,1.7,1.6,1.7h6.7c0.9,0,1.6-0.7,1.6-1.7v-2
			C17.3,17.7,16.6,17,15.7,17z M16.7,20.7c0,0.5-0.4,1-1,1H9c-0.5,0-1-0.4-1-1v-2c0-0.5,0.4-1,1-1h6.7c0.5,0,1,0.4,1,1V20.7z"/>
	</g>
	<g>
		<path class="st0" d="M10.7,24.3h5.7c0.2,0,0.3-0.1,0.3-0.3c0-0.2-0.1-0.3-0.3-0.3h-5.7c-0.2,0-0.3,0.2-0.3,0.3
			C10.3,24.2,10.5,24.3,10.7,24.3z"/>
	</g>
	<g>
		<path class="st0" d="M8.7,23.6h-1c-0.2,0-0.3,0.2-0.3,0.3c0,0.2,0.2,0.3,0.3,0.3h1C8.9,24.3,9,24.2,9,24S8.9,23.6,8.7,23.6z"/>
	</g>
	<g>
		<path class="st0" d="M17,25.7h-6.3c-0.2,0-0.3,0.1-0.3,0.3c0,0.2,0.1,0.3,0.3,0.3H17c0.2,0,0.3-0.1,0.3-0.3
			C17.3,25.8,17.2,25.7,17,25.7z"/>
	</g>
	<g>
		<path class="st0" d="M8.7,25.7h-1c-0.2,0-0.3,0.1-0.3,0.3c0,0.2,0.2,0.3,0.3,0.3h1C8.9,26.3,9,26.2,9,26S8.9,25.7,8.7,25.7z"/>
	</g>
	<g>
		<path class="st0" d="M15.7,27.7h-5c-0.2,0-0.3,0.1-0.3,0.3c0,0.2,0.1,0.3,0.3,0.3h5c0.2,0,0.3-0.1,0.3-0.3
			C16,27.8,15.9,27.7,15.7,27.7z"/>
	</g>
	<g>
		<path class="st0" d="M8.7,27.7h-1c-0.2,0-0.3,0.1-0.3,0.3c0,0.2,0.2,0.3,0.3,0.3h1C8.9,28.3,9,28.2,9,28S8.9,27.7,8.7,27.7z"/>
	</g>
</g>
</svg>
