<?xml version="1.0" encoding="utf-8"?>
<!-- Generator: Adobe Illustrator 24.2.3, SVG Export Plug-In . SVG Version: 6.00 Build 0)  -->
<svg version="1.1" id="Calque_1" xmlns="http://www.w3.org/2000/svg" xmlns:xlink="http://www.w3.org/1999/xlink" x="0px" y="0px"
	 viewBox="0 0 24 30" style="enable-background:new 0 0 24 30;" xml:space="preserve">
<style type="text/css">
	.st0{fill:#FFFFFF;}
</style>
<desc>Created with Sketch.</desc>
<g>
	<path class="st0" d="M20.8,15.4c1.2,0,2.2-1,2.2-2.2s-1-2.2-2.2-2.2c-1.2,0-2.2,1-2.2,2.2c0,0.3,0.1,0.6,0.2,0.9L14,17.5
		c-0.5-0.5-1.3-0.8-2-0.8c0,0,0,0-0.1,0l-1-3.3c0.5-0.2,0.8-0.7,0.8-1.3c0-0.8-0.6-1.4-1.4-1.4c-0.8,0-1.4,0.6-1.4,1.4
		c0,0.8,0.6,1.4,1.4,1.4c0.1,0,0.1,0,0.1,0l0.9,3.2c-0.9,0.1-1.7,0.7-2.1,1.4l-4.2-1.8c0-0.1,0-0.2,0-0.4c0-1.2-0.9-2.1-2.1-2.1
		C1.9,13.9,1,14.8,1,16s0.9,2.1,2.1,2.1c0.9,0,1.6-0.6,1.9-1.3l4.1,1.8c-0.2,0.4-0.3,0.8-0.3,1.2c0,0.9,0.4,1.6,0.9,2.2l-3.7,2
		c-0.2-0.3-0.6-0.5-1-0.5c-0.7,0-1.3,0.6-1.3,1.3c0,0.7,0.6,1.3,1.3,1.3c0.7,0,1.3-0.6,1.3-1.3c0-0.2,0-0.3-0.1-0.5l3.8-2.1
		c0.5,0.3,1,0.6,1.6,0.6l-0.2,2.8c-0.9,0.1-1.6,0.8-1.6,1.7c0,1,0.8,1.7,1.7,1.7s1.7-0.8,1.7-1.7c0-0.9-0.7-1.6-1.5-1.7l0.2-2.8
		c0.7,0,1.4-0.3,1.9-0.8l4.2,3.2C18.1,25.4,18,25.7,18,26c0,0.9,0.7,1.7,1.7,1.7c0.9,0,1.7-0.7,1.7-1.7c0-0.9-0.7-1.7-1.7-1.7
		c-0.4,0-0.8,0.2-1.1,0.4l-4.2-3.2c0.4-0.5,0.6-1.1,0.6-1.8c0-0.6-0.2-1.1-0.5-1.6l4.7-3.4C19.6,15.1,20.2,15.4,20.8,15.4z
		 M3.1,17.4c-0.8,0-1.4-0.6-1.4-1.4c0-0.8,0.6-1.4,1.4-1.4s1.4,0.6,1.4,1.4C4.5,16.8,3.9,17.4,3.1,17.4z M20.8,11.6
		c0.9,0,1.6,0.7,1.6,1.6c0,0.9-0.7,1.6-1.6,1.6s-1.6-0.7-1.6-1.6C19.2,12.3,19.9,11.6,20.8,11.6z M12.8,27.2c0,0.6-0.5,1.1-1.1,1.1
		s-1.1-0.5-1.1-1.1c0-0.6,0.5-1.1,1.1-1.1S12.8,26.7,12.8,27.2z M11.9,22.2c-1.3,0-2.4-1.1-2.4-2.4c0-1.3,1.1-2.4,2.4-2.4
		c1.3,0,2.4,1.1,2.4,2.4C14.4,21.1,13.3,22.2,11.9,22.2z"/>
	<path class="st0" d="M11.9,18.1c-0.9,0-1.7,0.7-1.7,1.7s0.7,1.7,1.7,1.7c0.9,0,1.7-0.7,1.7-1.7S12.9,18.1,11.9,18.1z"/>
</g>
</svg>
