<?xml version="1.0" encoding="utf-8"?>
<!-- Generator: Adobe Illustrator 24.2.3, SVG Export Plug-In . SVG Version: 6.00 Build 0)  -->
<svg version="1.1" id="Calque_1" xmlns="http://www.w3.org/2000/svg" xmlns:xlink="http://www.w3.org/1999/xlink" x="0px" y="0px"
	 viewBox="0 0 24 40" style="enable-background:new 0 0 24 40;" xml:space="preserve">
<style type="text/css">
	.st0{fill:#9013FE;}
</style>
<desc>Created with Sketch.</desc>
<g>
	<g>
		<path class="st0" d="M21.7,30.4h-0.3V30c0-0.6-0.4-1.1-1-1.3v-8.8c0.6-0.1,1-0.7,1-1.3v-0.3h1.3c0.1,0,0.3-0.1,0.3-0.2
			c0-0.1,0-0.3-0.1-0.4l-10.7-6.6c-0.1-0.1-0.2-0.1-0.4,0L1.2,17.7C1,17.8,1,17.9,1,18.1c0,0.1,0.2,0.2,0.3,0.2h1.3v0.3
			c0,0.6,0.4,1.1,1,1.3v8.8c-0.6,0.1-1,0.7-1,1.3v0.3H2.3C1.6,30.4,1,31,1,31.7v1C1,32.9,1.1,33,1.3,33h21.3c0.2,0,0.3-0.1,0.3-0.3
			v-1C23,31,22.4,30.4,21.7,30.4z M20.7,30v0.3h-4V30c0-0.4,0.3-0.7,0.7-0.7H20C20.4,29.4,20.7,29.7,20.7,30z M7,28.8v-8.8
			c0.6-0.1,1-0.7,1-1.3v-0.3h1.3v0.3c0,0.6,0.4,1.1,1,1.3v8.8c-0.6,0.1-1,0.7-1,1.3v0.3H8V30C8,29.4,7.6,28.9,7,28.8z M6.3,20v8.7
			h-2V20H6.3z M11,20h2v8.7h-2V20z M13.3,19.3h-2.7c-0.4,0-0.7-0.3-0.7-0.7v-0.3h4v0.3C14,19,13.7,19.3,13.3,19.3z M10,30
			c0-0.4,0.3-0.7,0.7-0.7h2.7c0.4,0,0.7,0.3,0.7,0.7v0.3h-4V30z M13.7,28.8v-8.8c0.6-0.1,1-0.7,1-1.3v-0.3H16v0.3
			c0,0.6,0.4,1.1,1,1.3v8.8c-0.6,0.1-1,0.7-1,1.3v0.3h-1.3V30C14.7,29.4,14.2,28.9,13.7,28.8z M17.7,28.7V20h2v8.7H17.7z M20.7,18.7
			c0,0.4-0.3,0.7-0.7,0.7h-2.7c-0.4,0-0.7-0.3-0.7-0.7v-0.3h4V18.7z M3,17.7H2.5l9.5-5.9l9.5,5.9H21h-4.7h-2H9.7h-2H3z M3.3,18.7
			v-0.3h4v0.3c0,0.4-0.3,0.7-0.7,0.7H4C3.6,19.3,3.3,19,3.3,18.7z M3.3,30c0-0.4,0.3-0.7,0.7-0.7h2.7c0.4,0,0.7,0.3,0.7,0.7v0.3h-4
			V30z M22.3,32.3H1.7v-0.6C1.7,31.3,2,31,2.3,31H3h4.7h2h4.7h2H21h0.7c0.4,0,0.7,0.3,0.7,0.7V32.3z"/>
	</g>
	<g>
		<path class="st0" d="M12,16.6c0.9,0,1.6-0.7,1.6-1.6c0-0.9-0.7-1.6-1.6-1.6c-0.9,0-1.6,0.7-1.6,1.6C10.4,15.9,11.1,16.6,12,16.6z
			 M12,14.1c0.5,0,0.9,0.4,0.9,0.9c0,0.5-0.4,0.9-0.9,0.9c-0.5,0-0.9-0.4-0.9-0.9C11.1,14.5,11.5,14.1,12,14.1z"/>
	</g>
</g>
</svg>
