<?xml version="1.0" encoding="utf-8"?>
<!-- Generator: Adobe Illustrator 24.2.3, SVG Export Plug-In . SVG Version: 6.00 Build 0)  -->
<svg version="1.1" id="Calque_1" xmlns="http://www.w3.org/2000/svg" xmlns:xlink="http://www.w3.org/1999/xlink" x="0px" y="0px"
	 viewBox="0 0 30 30" style="enable-background:new 0 0 30 30;" xml:space="preserve">
<style type="text/css">
	.st0{fill:#7A7A7C;}
</style>
<g>
	<g>
		<path class="st0" d="M14.6,9.1v4.2c-0.7,0.2-1.3,0.8-1.3,1.6c0,0.9,0.8,1.7,1.7,1.7c0.9,0,1.7-0.8,1.7-1.7c0-0.3-0.1-0.6-0.2-0.8
			l4.4-4.2c0.2-0.2,0.2-0.4,0-0.6c-0.2-0.2-0.4-0.2-0.6,0l-4.4,4.2c-0.1-0.1-0.3-0.2-0.5-0.2V9.1c0-0.2-0.2-0.4-0.4-0.4
			C14.8,8.7,14.6,8.9,14.6,9.1z M15.9,15c0,0.5-0.4,0.8-0.9,0.8c-0.5,0-0.9-0.4-0.9-0.8s0.4-0.9,0.9-0.9
			C15.5,14.1,15.9,14.5,15.9,15z"/>
	</g>
	<g>
		<path class="st0" d="M3.5,15c0,6.3,5.2,11.5,11.5,11.5c6.3,0,11.5-5.2,11.5-11.5c0-6.3-5.2-11.5-11.5-11.5C8.7,3.5,3.5,8.7,3.5,15
			z M15.4,5.7V4.4c1.6,0.1,3.2,0.5,4.5,1.2l-0.7,1.2c-0.1,0.2-0.1,0.5,0.2,0.6c0.1,0,0.1,0.1,0.2,0.1c0.1,0,0.3-0.1,0.4-0.2L20.7,6
			C22,6.9,23.2,8,24,9.3L22.9,10c-0.2,0.1-0.3,0.4-0.2,0.6c0.1,0.1,0.2,0.2,0.4,0.2c0.1,0,0.1,0,0.2-0.1l1.1-0.7
			c0.7,1.4,1.1,2.9,1.2,4.5h-1.3c-0.2,0-0.4,0.2-0.4,0.4c0,0.2,0.2,0.4,0.4,0.4h1.3c-0.1,1.6-0.5,3.2-1.2,4.5l-1.1-0.7
			c-0.2-0.1-0.5-0.1-0.6,0.2c-0.1,0.2-0.1,0.5,0.2,0.6l1.1,0.7c-0.8,1.3-2,2.5-3.3,3.3L20,22.9c-0.1-0.2-0.4-0.3-0.6-0.2
			c-0.2,0.1-0.3,0.4-0.2,0.6l0.7,1.1c-1.4,0.7-2.9,1.1-4.5,1.2v-1.3c0-0.2-0.2-0.4-0.4-0.4c-0.2,0-0.4,0.2-0.4,0.4v1.3
			c-1.6-0.1-3.2-0.5-4.5-1.2l0.7-1.1c0.1-0.2,0-0.5-0.2-0.6c-0.2-0.1-0.5-0.1-0.6,0.2L9.3,24C8,23.2,6.9,22,6,20.7L7.1,20
			c0.2-0.1,0.3-0.4,0.2-0.6c-0.1-0.2-0.4-0.3-0.6-0.2L5.6,20c-0.7-1.4-1.2-2.9-1.2-4.5h1.3c0.2,0,0.4-0.2,0.4-0.4
			c0-0.2-0.2-0.4-0.4-0.4H4.4c0.1-1.6,0.5-3.2,1.2-4.5l1.1,0.7c0.1,0,0.1,0.1,0.2,0.1c0.1,0,0.3-0.1,0.4-0.2c0.1-0.2,0-0.5-0.2-0.6
			L6,9.3C6.9,8,8,6.9,9.3,6L10,7.2c0.1,0.1,0.2,0.2,0.4,0.2c0.1,0,0.1,0,0.2-0.1c0.2-0.1,0.3-0.4,0.2-0.6L10,5.6
			c1.4-0.7,2.9-1.2,4.5-1.2v1.3c0,0.2,0.2,0.4,0.4,0.4C15.2,6.1,15.4,5.9,15.4,5.7z"/>
	</g>
</g>
</svg>
