<?xml version="1.0" encoding="utf-8"?>
<!-- Generator: Adobe Illustrator 24.2.3, SVG Export Plug-In . SVG Version: 6.00 Build 0)  -->
<svg version="1.1" id="Calque_1" xmlns="http://www.w3.org/2000/svg" xmlns:xlink="http://www.w3.org/1999/xlink" x="0px" y="0px"
	 viewBox="0 0 26 26" style="enable-background:new 0 0 26 26;" xml:space="preserve">
<style type="text/css">
	.st0{fill:#FFFFFF;}
</style>
<g>
	<g>
		<g>
			<path class="st0" d="M6.4,10.4c0.1,0.1,0.3,0.1,0.5,0l2.6-3.3c0.1-0.1,0.1-0.2,0-0.3c0-0.1-0.2-0.2-0.3-0.2h-1V4.4
				c0-0.2-0.1-0.3-0.3-0.3H5.4c-0.2,0-0.3,0.1-0.3,0.3v2.2h-1c-0.1,0-0.2,0.1-0.3,0.2c-0.1,0.1,0,0.2,0,0.3L6.4,10.4z M5.4,7.2
				c0.2,0,0.3-0.1,0.3-0.3V4.7h2v2.2c0,0.2,0.1,0.3,0.3,0.3h0.7l-2,2.5l-2-2.5H5.4z"/>
		</g>
		<g>
			<path class="st0" d="M19.1,10.4c0.1,0.1,0.3,0.1,0.5,0l2.6-3.3c0.1-0.1,0.1-0.2,0-0.3c0-0.1-0.1-0.2-0.3-0.2h-1V4.4
				c0-0.2-0.1-0.3-0.3-0.3h-2.6c-0.2,0-0.3,0.1-0.3,0.3v2.2h-1c-0.1,0-0.2,0.1-0.3,0.2c-0.1,0.1,0,0.2,0,0.3L19.1,10.4z M18.1,7.2
				c0.2,0,0.3-0.1,0.3-0.3V4.7h2v2.2c0,0.2,0.1,0.3,0.3,0.3h0.7l-2,2.5l-2-2.5H18.1z"/>
		</g>
		<g>
			<path class="st0" d="M12.8,10.4c0.1,0.1,0.3,0.1,0.5,0l2.6-3.3c0.1-0.1,0.1-0.2,0-0.3c0-0.1-0.1-0.2-0.3-0.2h-1V2.7
				c0-0.2-0.1-0.3-0.3-0.3h-2.6c-0.2,0-0.3,0.1-0.3,0.3v3.9h-1c-0.1,0-0.2,0.1-0.3,0.2c0,0.1,0,0.2,0,0.3L12.8,10.4z M11.7,7.2
				c0.2,0,0.3-0.1,0.3-0.3V3h2v3.9c0,0.2,0.1,0.3,0.3,0.3H15l-2,2.5l-2-2.5H11.7z"/>
		</g>
	</g>
	<path class="st0" d="M1.5,21.9c0,1,0.8,1.7,1.7,1.7h19.5c1,0,1.7-0.8,1.7-1.7v-7.3L21.2,12H4.8l-3.3,2.5V21.9z M21.2,12.9l1.9,1.5
		h-1.8h-0.1V12.9z M5.5,12.9H12h1.7h6.7v1.5h-3c-0.2,0-0.3,0.2-0.3,0.3c0,1.4-1.1,2.4-2.4,2.4h-3.5c-1.3,0-2.4-1.1-2.4-2.4
		c0-0.2-0.2-0.3-0.4-0.3h-3V12.9z M4.8,12.9v1.5H4.6H2.9L4.8,12.9z M23.8,21.9c0,0.6-0.5,1-1,1H3.2c-0.6,0-1-0.5-1-1v-6.8h2.5h3.4
		c0.2,1.6,1.5,2.8,3.1,2.8h0.6h2.1h0.8c1.6,0,2.9-1.2,3.1-2.8h3.4h2.6V21.9z"/>
</g>
</svg>
