<?xml version="1.0" encoding="utf-8"?>
<!-- Generator: Adobe Illustrator 24.2.3, SVG Export Plug-In . SVG Version: 6.00 Build 0)  -->
<svg version="1.1" id="ic-transaction-received" xmlns="http://www.w3.org/2000/svg" xmlns:xlink="http://www.w3.org/1999/xlink"
	 x="0px" y="0px" viewBox="0 0 24 24" style="enable-background:new 0 0 24 24;" xml:space="preserve">
<style type="text/css">
	.st0{fill:none;}
	.st1{fill:#7A7A7C;}
</style>
<path id="Rectangle_4413" class="st0" d="M0,0h24v24H0V0z"/>
<g>
	<g>
		<g>
			<path class="st1" d="M6.3,9.7c0.1,0.1,0.3,0.1,0.4,0L9,6.9c0-0.1,0-0.2,0-0.3S8.9,6.5,8.8,6.5H7.9v-2c0-0.1-0.1-0.3-0.3-0.3H5.4
				c-0.1,0-0.3,0.1-0.3,0.3v1.9H4.2C4.1,6.4,4,6.5,4,6.6s0,0.2,0,0.3L6.3,9.7z M5.4,7c0.1,0,0.2-0.1,0.2-0.3V4.8h1.8v1.9
				C7.4,6.8,7.5,7,7.6,7h0.6L6.5,9.1L4.7,7H5.4z"/>
		</g>
		<g>
			<path class="st1" d="M17.3,9.7c0.1,0.1,0.3,0.1,0.4,0L20,6.9c0-0.1,0-0.2,0-0.3s-0.1-0.1-0.2-0.1h-0.9v-2c0-0.1-0.1-0.3-0.3-0.3
				h-2.3c-0.1,0-0.3,0.1-0.3,0.3v1.9h-0.9c-0.1,0-0.2,0.1-0.2,0.1c0,0.1,0,0.2,0,0.3L17.3,9.7z M16.4,7c0.1,0,0.2-0.1,0.2-0.3V4.8
				h1.8v1.9c0,0.1,0.1,0.3,0.2,0.3h0.6l-1.7,2.2L15.8,7H16.4z"/>
		</g>
		<g>
			<path class="st1" d="M11.8,9.7c0.1,0.1,0.3,0.1,0.4,0l2.3-2.8c0.1-0.1,0.1-0.2,0-0.3c0-0.1-0.1-0.1-0.2-0.1h-0.9V3
				c0-0.1-0.1-0.3-0.3-0.3h-2.3c-0.1,0-0.2,0.1-0.2,0.3v3.4H9.7c-0.1,0-0.2,0.1-0.2,0.1c0,0.1,0,0.2,0,0.3L11.8,9.7z M10.9,7
				c0.1,0,0.3-0.1,0.3-0.3V3.3H13v3.4C12.9,6.8,13,7,13.1,7h0.6L12,9.1L10.3,7H10.9z"/>
		</g>
	</g>
	<path class="st1" d="M2,19.7c0,0.8,0.7,1.5,1.5,1.5h17c0.8,0,1.5-0.7,1.5-1.5v-6.4l-2.9-2.2H4.9L2,13.3V19.7z M19.1,11.9l1.7,1.3
		h-1.6h-0.1V11.9z M5.5,11.9h5.6h1.5h5.9v1.3h-2.6c-0.2,0-0.3,0.1-0.3,0.3c0,1.2-1,2.1-2.1,2.1h-3c-1.2,0-2.1-0.9-2.1-2.1
		c0-0.2-0.1-0.3-0.3-0.3H5.5V11.9z M4.9,11.9v1.3H4.7H3.2L4.9,11.9z M21.4,19.7c0,0.5-0.4,0.9-0.9,0.9h-17c-0.5,0-0.9-0.4-0.9-0.9
		v-5.9h2.2h3c0.1,1.4,1.3,2.4,2.7,2.4H11h1.8h0.7c1.4,0,2.6-1.1,2.7-2.4h2.9h2.2L21.4,19.7L21.4,19.7z"/>
</g>
</svg>
