<?xml version="1.0" encoding="utf-8"?>
<!-- Generator: Adobe Illustrator 24.2.3, SVG Export Plug-In . SVG Version: 6.00 Build 0)  -->
<svg version="1.1" id="ic_send" xmlns="http://www.w3.org/2000/svg" xmlns:xlink="http://www.w3.org/1999/xlink" x="0px" y="0px"
	 viewBox="0 0 26 26" style="enable-background:new 0 0 26 26;" xml:space="preserve">
<style type="text/css">
	.st0{fill:none;}
	.st1{fill:#7A7A7C;}
</style>
<path id="Rectangle_4395" class="st0" d="M0,0h26v26H0V0z"/>
<g>
	<path class="st1" d="M1.6,12l3.8,3.9l-0.3,4.2c0,0,0,0,0,0.1c0,0,0,0.1,0,0.1c0,0,0,0,0,0.1c0,0,0,0,0,0.1c0,0,0,0,0,0l0,0
		c0,0,0.1,0,0.1,0.1c0,0,0,0,0,0c0,0,0.1,0,0.1,0l4.6,0.1l3.8,3.8c0.1,0.1,0.2,0.1,0.3,0.1c0,0,0,0,0.1,0c0.1,0,0.2-0.1,0.3-0.2
		l3.2-7.2c3.9-0.4,7-3.7,7-7.8c0-4.3-3.5-7.8-7.8-7.8C12.5,1.5,9,5,9,9.3C9,9.5,9,9.8,9,10l-7.3,1.4c-0.1,0-0.2,0.1-0.3,0.2
		C1.4,11.8,1.5,11.9,1.6,12z M17.9,16.3l3.5-8c0.1-0.1,0-0.3-0.1-0.4c-0.1-0.1-0.2-0.2-0.3-0.1L9.7,9.9c0-0.2,0-0.4,0-0.6
		c0-3.9,3.2-7.1,7.1-7.1s7.1,3.2,7.1,7.1C23.9,12.8,21.3,15.7,17.9,16.3z M2.5,12l18-3.4l-6.6,14.9l-3.3-3.3L19,11
		c0.1-0.1,0.1-0.4,0-0.5c-0.1-0.1-0.4-0.1-0.5,0L10,19.9l-3.6-0.1l9.8-7.5c0.2-0.1,0.2-0.3,0.1-0.5c-0.1-0.2-0.3-0.2-0.5-0.1
		l-9.9,7.6L6.1,16l11.6-5.8c0.2-0.1,0.2-0.3,0.2-0.5c-0.1-0.2-0.3-0.3-0.5-0.2L5.8,15.3L2.5,12z"/>
</g>
</svg>
