<?xml version="1.0" encoding="utf-8"?>
<!-- Generator: Adobe Illustrator 24.2.3, SVG Export Plug-In . SVG Version: 6.00 Build 0)  -->
<svg version="1.1" id="ic-transaction-staked" xmlns="http://www.w3.org/2000/svg" xmlns:xlink="http://www.w3.org/1999/xlink"
	 x="0px" y="0px" viewBox="0 0 24 24" style="enable-background:new 0 0 24 24;" xml:space="preserve">
<style type="text/css">
	.st0{fill:#FFFFFF;}
	.st1{fill:none;}
	.st2{fill:#7A7A7C;}
</style>
<g>
	<path class="st0" d="M18.3,13L18.3,13L18.3,13z"/>
</g>
<path class="st1" d="M10.2,5.8l-0.6-1C9.5,4.5,9.2,4.2,8.9,4.1C8.8,4.1,8.6,4,8.5,4C8.3,4,8.1,4,8,4.1C7.3,4.5,7,5.2,7.3,5.8H10.2z"
	/>
<path class="st1" d="M16.9,4.9c-0.1-0.3-0.4-0.6-0.7-0.7C16,4.1,15.6,4,15.3,4.1s-0.6,0.3-0.8,0.6l-0.6,1h2.9
	C17,5.5,17,5.2,16.9,4.9z"/>
<rect x="5.9" y="10.1" class="st1" width="12.3" height="9.6"/>
<rect x="3.6" y="7.1" class="st1" width="17" height="1.6"/>
<g>
	<path class="st2" d="M21.5,7.2h-5.2C17,6.7,17.4,5.9,17.4,5c0-1.6-1.3-2.9-2.9-2.9c-1.3,0-2.4,0.9-2.7,2c-0.4-0.5-1.1-0.9-1.8-0.9
		c-1.3,0-2.3,1-2.3,2.3c0,0.7,0.3,1.2,0.7,1.6h-6c-0.5,0-1,0.4-1,1v1.9c0,0.5,0.4,1,1,1v9.9c0,0.5,0.4,1,1,1h7.7h1.7h7.7
		c0.5,0,1-0.4,1-1v-9.9c0.5,0,1-0.4,1-1V8.2C22.5,7.7,22.1,7.2,21.5,7.2z M12.3,5c0-1.2,1-2.2,2.2-2.2c1.2,0,2.2,1,2.2,2.2
		c0,1.2-1,2.2-2.2,2.2h-1.7h-0.6V5.6V5z M12.6,10.4h-1.1V7.9H12h0.6V10.4z M8.4,5.6c0-0.9,0.7-1.6,1.6-1.6c0.9,0,1.6,0.7,1.6,1.6
		v1.6h-0.6H10C9.1,7.2,8.4,6.5,8.4,5.6z M2.1,10.1V8.2c0-0.2,0.1-0.3,0.3-0.3H10h0.8v2.5h-8H2.5C2.3,10.4,2.1,10.3,2.1,10.1z
		 M3.4,21.2c-0.2,0-0.3-0.1-0.3-0.3v-9.9h17.8v9.9c0,0.2-0.1,0.3-0.3,0.3H3.4z M21.9,10.1c0,0.2-0.1,0.3-0.3,0.3h-0.3h-8V7.9h1.4h7
		c0.2,0,0.3,0.1,0.3,0.3V10.1z"/>
</g>
<path class="st2" d="M13.8,14.4c-1-1.1-2.2-2.1-2.7-2.5c-0.4-0.3-0.4,0-0.4,0.1c0.1,0.5,0.2,1.8-1.2,3.4c-1.6,1.8-0.3,4.4,0.8,5.1
	c0.7,0.4,1.3,0.3,1.3,0.3c0.1,0,0.3,0,0.3-0.1c-0.8-0.4-2.5-1.7-0.1-5.2c0,0-0.1,1.3,0.4,1.7c0.3,0.1,0.9-0.4,0.9-0.4
	s1.2,2.5-0.5,3.6c-0.1,0-0.1,0.1-0.3,0.1c0.1,0.1,0.3,0.1,0.3,0.1c0.9,0,1.8-0.5,2.5-1.9S14.8,15.4,13.8,14.4z"/>
</svg>
