<?xml version="1.0" encoding="utf-8"?>
<!-- Generator: Adobe Illustrator 24.2.3, SVG Export Plug-In . SVG Version: 6.00 Build 0)  -->
<svg version="1.1" id="ic-transaction-staked" xmlns="http://www.w3.org/2000/svg" xmlns:xlink="http://www.w3.org/1999/xlink"
	 x="0px" y="0px" viewBox="0 0 24 24" style="enable-background:new 0 0 24 24;" xml:space="preserve">
<style type="text/css">
	.st0{fill:#7A7A7C;}
</style>
<g>
	<g>
		<path class="st0" d="M21.5,7.2h-5.2C17,6.7,17.4,5.9,17.4,5c0-1.6-1.3-2.9-2.9-2.9c-1.3,0-2.4,0.9-2.7,2c-0.4-0.5-1.1-0.9-1.8-0.9
			c-1.3,0-2.3,1-2.3,2.3c0,0.7,0.3,1.2,0.7,1.6h-6c-0.5,0-1,0.4-1,1v1.9c0,0.5,0.4,1,1,1v9.9c0,0.5,0.4,1,1,1h7.7h1.7h7.7
			c0.5,0,1-0.4,1-1v-9.9c0.5,0,1-0.4,1-1V8.2C22.5,7.7,22.1,7.2,21.5,7.2z M12.3,5c0-1.2,1-2.2,2.2-2.2c1.2,0,2.2,1,2.2,2.2
			c0,1.2-1,2.2-2.2,2.2h-1.7h-0.6V5.6V5z M12.6,10.4h-1.1V7.9H12h0.6V10.4z M8.4,5.6c0-0.9,0.7-1.6,1.6-1.6c0.9,0,1.6,0.7,1.6,1.6
			v1.6h-0.6H10C9.1,7.2,8.4,6.5,8.4,5.6z M2.1,10.1V8.2c0-0.2,0.1-0.3,0.3-0.3H10h0.8v2.5h-8H2.5C2.3,10.4,2.1,10.3,2.1,10.1z
			 M3.4,21.2c-0.2,0-0.3-0.1-0.3-0.3v-9.9h17.8v9.9c0,0.2-0.1,0.3-0.3,0.3H3.4z M21.9,10.1c0,0.2-0.1,0.3-0.3,0.3h-0.3h-8V7.9h1.4h7
			c0.2,0,0.3,0.1,0.3,0.3V10.1z"/>
	</g>
	<path class="st0" d="M15.9,18l-1.4-0.8l0.9-0.2c0.1,0,0.2-0.2,0.2-0.3c0-0.1-0.2-0.2-0.3-0.2l-1.4,0.3l-1.3-0.8l1.3-0.8l1.4,0.3
		c0,0,0,0,0.1,0c0.1,0,0.2-0.1,0.3-0.2c0-0.1-0.1-0.3-0.2-0.3l-0.9-0.2l1.4-0.8c0.1-0.1,0.2-0.2,0.1-0.4c-0.1-0.1-0.2-0.2-0.4-0.1
		l-1.4,0.8l0.3-0.9c0-0.1,0-0.3-0.2-0.3c-0.1,0-0.3,0-0.3,0.2l-0.4,1.4l-1.3,0.8v-1.6l1-1c0.1-0.1,0.1-0.3,0-0.4
		c-0.1-0.1-0.3-0.1-0.4,0l-0.6,0.7v-1.6c0-0.1-0.1-0.3-0.3-0.3s-0.3,0.1-0.3,0.3v1.6l-0.6-0.7c-0.1-0.1-0.3-0.1-0.4,0
		c-0.1,0.1-0.1,0.3,0,0.4l1,1v1.6l-1.3-0.8L10,13.5c0-0.1-0.2-0.2-0.3-0.2c-0.1,0-0.2,0.2-0.2,0.3l0.3,0.9l-1.4-0.8
		c-0.1-0.1-0.3,0-0.4,0.1c-0.1,0.1,0,0.3,0.1,0.4l1.4,0.8l-0.9,0.2c-0.1,0-0.2,0.2-0.2,0.3c0,0.1,0.1,0.2,0.3,0.2c0,0,0,0,0.1,0
		l1.4-0.3l1.3,0.8l-1.3,0.8l-1.4-0.3c-0.1,0-0.3,0.1-0.3,0.2c0,0.1,0.1,0.3,0.2,0.3l0.9,0.2L8.1,18C8,18.1,8,18.2,8,18.4
		c0,0.1,0.1,0.1,0.2,0.1c0,0,0.1,0,0.1,0l1.4-0.8l-0.3,0.9c0,0.1,0,0.3,0.2,0.3c0,0,0,0,0.1,0c0.1,0,0.2-0.1,0.2-0.2l0.4-1.4
		l1.3-0.8v1.5l-1,1c-0.1,0.1-0.1,0.3,0,0.4c0.1,0,0.1,0.1,0.2,0.1c0.1,0,0.1,0,0.2-0.1l0.6-0.7v1.6c0,0.1,0.1,0.3,0.3,0.3
		s0.3-0.1,0.3-0.3v-1.6l0.6,0.7c0.1,0.1,0.1,0.1,0.2,0.1c0.1,0,0.1,0,0.2-0.1c0.1-0.1,0.1-0.3,0-0.4l-1-1v-1.5l1.3,0.8l0.4,1.4
		c0,0.1,0.1,0.2,0.2,0.2c0,0,0,0,0.1,0c0.1,0,0.2-0.2,0.2-0.3l-0.3-0.9l1.4,0.8c0,0,0.1,0,0.1,0c0.1,0,0.2,0,0.2-0.1
		C16,18.2,16,18.1,15.9,18z"/>
</g>
</svg>
