<?xml version="1.0" encoding="utf-8"?>
<!-- Generator: Adobe Illustrator 24.2.3, SVG Export Plug-In . SVG Version: 6.00 Build 0)  -->
<svg version="1.1" id="ic-transaction-staked" xmlns="http://www.w3.org/2000/svg" xmlns:xlink="http://www.w3.org/1999/xlink"
	 x="0px" y="0px" viewBox="0 0 24 24" style="enable-background:new 0 0 24 24;" xml:space="preserve">
<style type="text/css">
	.st0{fill:none;}
	.st1{fill:#7A7A7C;}
</style>
<path id="Rectangle_4527" class="st0" d="M0,0h24v24H0V0z"/>
<g>
	<path class="st1" d="M21.5,7.2h-5.2C17,6.7,17.4,5.9,17.4,5c0-1.6-1.3-2.9-2.9-2.9c-1.3,0-2.4,0.9-2.7,2c-0.4-0.5-1.1-0.9-1.8-0.9
		c-1.3,0-2.3,1-2.3,2.3c0,0.7,0.3,1.2,0.7,1.6h-6c-0.5,0-1,0.4-1,1v1.9c0,0.5,0.4,1,1,1v9.9c0,0.5,0.4,1,1,1h7.7h1.7h7.7
		c0.5,0,1-0.4,1-1v-9.9c0.5,0,1-0.4,1-1V8.2C22.5,7.7,22.1,7.2,21.5,7.2z M12.3,5c0-1.2,1-2.2,2.2-2.2c1.2,0,2.2,1,2.2,2.2
		c0,1.2-1,2.2-2.2,2.2h-1.7h-0.6V5.6V5z M12.6,10.4h-1.1V7.9H12h0.6V10.4z M8.4,5.6c0-0.9,0.7-1.6,1.6-1.6c0.9,0,1.6,0.7,1.6,1.6
		v1.6h-0.6H10C9.1,7.2,8.4,6.5,8.4,5.6z M2.1,10.1V8.2c0-0.2,0.1-0.3,0.3-0.3H10h0.8v2.5h-8H2.5C2.3,10.4,2.1,10.3,2.1,10.1z
		 M3.1,20.9v-9.9h7.7v10.2H3.4C3.2,21.2,3.1,21.1,3.1,20.9z M11.4,21.2V11.1h1.1v10.2H11.4z M20.9,20.9c0,0.2-0.1,0.3-0.3,0.3h-7.4
		V11.1h7.7V20.9z M21.9,10.1c0,0.2-0.1,0.3-0.3,0.3h-0.3h-8V7.9h1.4h7c0.2,0,0.3,0.1,0.3,0.3V10.1z"/>
</g>
</svg>
