<?xml version="1.0" encoding="utf-8"?>
<!-- Generator: Adobe Illustrator 24.2.3, SVG Export Plug-In . SVG Version: 6.00 Build 0)  -->
<svg version="1.1" id="ic-transaction-mint" xmlns="http://www.w3.org/2000/svg" xmlns:xlink="http://www.w3.org/1999/xlink"
	 x="0px" y="0px" viewBox="0 0 24 24" style="enable-background:new 0 0 24 24;" xml:space="preserve">
<style type="text/css">
	.st0{fill:none;}
	.st1{fill:#1A171B;}
	.st2{fill:#7A7A7C;}
</style>
<path id="Rectangle_4408" class="st0" d="M0,0h24v24H0V0z"/>
<g>
	<g>
		<g>
			<g>
				<path class="st1" d="M672.7,102c-0.1,0-7.2,4-12,1.4l1.6-1.6c0.2-0.2,0.2-0.4,0.1-0.6c-0.1-0.2-0.3-0.3-0.5-0.3h-7.5
					c-0.3,0-0.5,0.2-0.5,0.6v7.5c0,0.2,0.1,0.4,0.3,0.5c0.2,0.1,0.4,0,0.6-0.1l1.8-1.8c2,0.7,11.6,3.6,16.9-4.7
					c0.1-0.2,0.1-0.5-0.1-0.7C673.2,101.9,672.9,101.9,672.7,102z M656.6,106.3c-0.2-0.1-0.5,0-0.6,0.1l-1.1,1.1V102h5.6l-1.1,1.1
					c-0.1,0.1-0.2,0.3-0.2,0.4c0,0.2,0.1,0.3,0.2,0.4c3.7,2.6,8.9,1.1,11.7,0C665.6,110,657,106.5,656.6,106.3z"/>
			</g>
			<g>
				<path class="st1" d="M654.6,77c0.1-0.1,7.2-4.1,12-1.4l-1.6,1.6c-0.2,0.2-0.2,0.4-0.1,0.6c0.1,0.2,0.3,0.3,0.5,0.3h7.5
					c0.3,0,0.5-0.2,0.5-0.6V70c0-0.2-0.1-0.4-0.3-0.5c-0.1,0-0.1,0-0.2,0c-0.1,0-0.3,0-0.4,0.1l-1.8,1.8c-2-0.7-11.6-3.6-16.9,4.7
					c-0.1,0.2-0.1,0.5,0.1,0.7C654.1,77.1,654.4,77.1,654.6,77z M670.6,72.6c0.2,0.1,0.4,0,0.6-0.1l1.1-1.1V77h-5.6l1.1-1.1
					c0.1-0.1,0.2-0.3,0.2-0.4c0-0.2-0.1-0.3-0.2-0.4c-3.8-2.6-8.9-1.1-11.7,0C661.7,69,670.3,72.5,670.6,72.6z"/>
			</g>
		</g>
	</g>
	<g>
		<path class="st1" d="M667.9,87.4l-4.3,5.4l-2.1-2.3c-0.3-0.3-0.7-0.3-1-0.1c-0.3,0.3-0.3,0.7-0.1,1l2.6,3c0.1,0.2,0.3,0.3,0.5,0.3
			c0,0,0,0,0,0c0.2,0,0.4-0.1,0.5-0.3l4.8-6.1c0.2-0.3,0.2-0.8-0.1-1C668.6,87.1,668.1,87.1,667.9,87.4z"/>
		<path class="st1" d="M663.6,81.4l-7.3,3.5v8.4l7.3,4.2l7.3-4.2V85L663.6,81.4z M669.7,85.4l-6,2.9l-6-2.9l6-2.9L669.7,85.4z
			 M663.6,96.5l-6.4-3.7v-7.1l6.4,3.1l6.4-3v7.1L663.6,96.5z"/>
	</g>
</g>
<g>
	<g>
		<g>
			<g>
				<path class="st2" d="M16.5,18.3c0,0-3.6,2-6,0.7l0.8-0.8c0.1-0.1,0.1-0.2,0.1-0.3c0-0.1-0.1-0.2-0.3-0.2H7.3
					c-0.2,0-0.3,0.1-0.3,0.3v3.8c0,0.1,0.1,0.2,0.2,0.3c0.1,0,0.2,0,0.3-0.1L8.5,21c1,0.4,5.8,1.8,8.4-2.4c0.1-0.1,0.1-0.2,0-0.3
					C16.8,18.2,16.6,18.2,16.5,18.3z M8.5,20.4c-0.1,0-0.2,0-0.3,0.1l-0.6,0.6v-2.8h2.8l-0.6,0.6C9.8,18.9,9.8,19,9.8,19
					c0,0.1,0,0.2,0.1,0.2c1.9,1.3,4.4,0.6,5.8,0C13,22.3,8.7,20.5,8.5,20.4z"/>
			</g>
			<g>
				<path class="st2" d="M7.5,5.7c0,0,3.6-2,6-0.7l-0.8,0.8c-0.1,0.1-0.1,0.2-0.1,0.3c0,0.1,0.1,0.2,0.3,0.2h3.8
					c0.2,0,0.3-0.1,0.3-0.3V2.3c0-0.1-0.1-0.2-0.2-0.3c0,0-0.1,0-0.1,0c-0.1,0-0.1,0-0.2,0.1L15.5,3c-1-0.4-5.8-1.8-8.4,2.4
					C7,5.5,7.1,5.6,7.1,5.7C7.2,5.8,7.4,5.8,7.5,5.7z M15.5,3.6c0.1,0,0.2,0,0.3-0.1l0.6-0.6v2.8h-2.8l0.6-0.6
					c0.1-0.1,0.1-0.1,0.1-0.2c0-0.1,0-0.2-0.1-0.2c-1.9-1.3-4.4-0.6-5.8,0C11,1.7,15.3,3.5,15.5,3.6z"/>
			</g>
		</g>
	</g>
	<g>
		<path class="st2" d="M14.1,11L12,13.7l-1-1.1c-0.1-0.1-0.4-0.2-0.5,0c-0.1,0.1-0.2,0.4,0,0.5l1.3,1.5c0.1,0.1,0.2,0.1,0.3,0.1
			c0,0,0,0,0,0c0.1,0,0.2-0.1,0.3-0.2l2.4-3.1c0.1-0.2,0.1-0.4-0.1-0.5C14.5,10.8,14.2,10.8,14.1,11z"/>
		<path class="st2" d="M12,8L8.4,9.7v4.2L12,16l3.6-2.1V9.7L12,8z M15,9.9l-3,1.4L9,9.9l3-1.5L15,9.9z M12,15.5l-3.2-1.8v-3.6
			l3.2,1.6l3.2-1.5v3.5L12,15.5z"/>
	</g>
</g>
</svg>
