<?xml version="1.0" encoding="utf-8"?>
<!-- Generator: Adobe Illustrator 24.2.3, SVG Export Plug-In . SVG Version: 6.00 Build 0)  -->
<svg version="1.1" id="ic-transaction-sent" xmlns="http://www.w3.org/2000/svg" xmlns:xlink="http://www.w3.org/1999/xlink"
	 x="0px" y="0px" viewBox="0 0 24 24" style="enable-background:new 0 0 24 24;" xml:space="preserve">
<style type="text/css">
	.st0{fill:none;}
	.st1{fill:#7A7A7C;}
</style>
<path id="Rectangle_4412" class="st0" d="M0,0h24v24H0V0z"/>
<g>
	<path class="st1" d="M2,11.1l3.3,3.4l-0.3,3.7c0,0,0,0,0,0c0,0,0,0,0,0.1c0,0,0,0,0,0.1c0,0,0,0,0,0c0,0,0,0,0,0l0,0
		c0,0,0,0,0.1,0.1c0,0,0,0,0,0c0,0,0.1,0,0.1,0l4,0.1l3.3,3.3c0.1,0.1,0.1,0.1,0.2,0.1c0,0,0,0,0.1,0c0.1,0,0.2-0.1,0.2-0.2l2.8-6.3
		c3.4-0.3,6.1-3.2,6.1-6.7C22.1,5,19,2,15.3,2c-3.7,0-6.8,3-6.8,6.8c0,0.2,0,0.4,0,0.7l-6.3,1.2c-0.1,0-0.2,0.1-0.2,0.2
		C1.9,10.9,1.9,11.1,2,11.1z M16.2,14.9l3.1-7c0-0.1,0-0.2,0-0.3c-0.1-0.1-0.2-0.1-0.3-0.1L9.1,9.3c0-0.2,0-0.4,0-0.5
		c0-3.4,2.8-6.2,6.2-6.2s6.2,2.8,6.2,6.2C21.5,11.9,19.2,14.4,16.2,14.9z M2.9,11.1l15.6-3l-5.7,13l-2.9-2.9l7.3-8
		c0.1-0.1,0.1-0.3,0-0.4c-0.1-0.1-0.3-0.1-0.4,0L9.4,18l-3.1-0.1l8.5-6.5c0.1-0.1,0.2-0.3,0.1-0.4c-0.1-0.1-0.3-0.2-0.4-0.1
		l-8.6,6.6l0.2-3l10.1-5c0.1-0.1,0.2-0.3,0.1-0.4C16.1,9,15.9,9,15.8,9l-10,5L2.9,11.1z"/>
</g>
</svg>
