<?xml version="1.0" encoding="utf-8"?>
<!-- Generator: Adobe Illustrator 24.2.3, SVG Export Plug-In . SVG Version: 6.00 Build 0)  -->
<svg version="1.1" id="Calque_1" xmlns="http://www.w3.org/2000/svg" xmlns:xlink="http://www.w3.org/1999/xlink" x="0px" y="0px"
	 viewBox="0 0 24 24" style="enable-background:new 0 0 24 24;" xml:space="preserve">
<style type="text/css">
	.st0{fill:#9013FE;}
</style>
<desc>Created with Sketch.</desc>
<g>
	<path class="st0" d="M17.3,7.1c-0.3,0.2-0.3,0.7-0.1,1c1.1,1.3,1.7,2.9,1.7,4.6c0,3.8-3.1,6.9-6.9,6.9c-3.8,0-6.9-3.1-6.9-6.9
		c0-3.6,2.8-6.6,6.3-6.9v1.3L15,5.1L11.4,3v1.4c-4.3,0.3-7.7,3.9-7.7,8.3c0,4.6,3.7,8.3,8.3,8.3c4.6,0,8.3-3.7,8.3-8.3
		c0-2-0.7-4-2.1-5.5C18,6.9,17.6,6.9,17.3,7.1z"/>
</g>
</svg>
