<?xml version="1.0" encoding="utf-8"?>
<!-- Generator: Adobe Illustrator 24.2.3, SVG Export Plug-In . SVG Version: 6.00 Build 0)  -->
<svg version="1.1" id="ic_unlocked" xmlns="http://www.w3.org/2000/svg" xmlns:xlink="http://www.w3.org/1999/xlink" x="0px"
	 y="0px" viewBox="0 0 24 24" style="enable-background:new 0 0 24 24;" xml:space="preserve">
<style type="text/css">
	.st0{fill:none;}
	.st1{fill:#7A7A7C;}
</style>
<path id="Rectangle_4444" class="st0" d="M0,0h24v24H0V0z"/>
<g>
	<g>
		<path class="st1" d="M19.8,10h-1.3V8.7c0-3.5-2.7-6.5-6.2-6.7C8.6,1.8,5.5,4.8,5.5,8.5l0,0.5h2.6V8.6c0-2.1,1.6-3.9,3.6-4
			c2.3-0.2,4.2,1.7,4.2,3.9V10H4.2v4.2c0,4.2,3.4,7.7,7.7,7.8c0,0,0.1,0,0.1,0c2,0,3.9-0.8,5.4-2.2c1.5-1.5,2.4-3.6,2.4-5.7V10z
			 M6.1,8.5c0-3.2,2.6-5.9,5.9-5.9c3.2,0,5.9,2.6,5.9,5.9V10h-1.4V8.5C16.5,6,14.5,4,12,4C9.5,4,7.5,6,7.5,8.5H6.1z M19.2,14
			c0,2-0.8,3.9-2.2,5.3c-1.4,1.4-3.2,2.1-5.1,2.1c-3.9-0.1-7.1-3.3-7.1-7.2v-3.6h14.4V14z"/>
	</g>
	<g>
		<path class="st1" d="M12,12.8c-0.8,0-1.5,0.7-1.5,1.5c0,0.4,0.2,0.8,0.5,1.1l-0.4,2.5c0,0.1,0,0.2,0.1,0.3
			c0.1,0.1,0.1,0.1,0.2,0.1h2.4c0.1,0,0.2,0,0.2-0.1c0.1-0.1,0.1-0.2,0.1-0.3l-0.4-2.5c0.3-0.3,0.4-0.7,0.4-1.1
			C13.5,13.5,12.8,12.8,12,12.8z M12.4,15.4l0.4,2.3h-1.7l0.4-2.3c0-0.1,0-0.2-0.1-0.3c-0.2-0.2-0.4-0.4-0.4-0.7
			c0-0.5,0.4-0.9,0.9-0.9c0.5,0,0.9,0.4,0.9,0.9c0,0.3-0.1,0.5-0.4,0.7C12.5,15.1,12.4,15.2,12.4,15.4z"/>
	</g>
</g>
</svg>
