<?xml version="1.0" encoding="utf-8"?>
<!-- Generator: Adobe Illustrator 24.2.3, SVG Export Plug-In . SVG Version: 6.00 Build 0)  -->
<svg version="1.1" id="ic_locked" xmlns="http://www.w3.org/2000/svg" xmlns:xlink="http://www.w3.org/1999/xlink" x="0px" y="0px"
	 viewBox="0 0 24 24" style="enable-background:new 0 0 24 24;" xml:space="preserve">
<style type="text/css">
	.st0{fill:none;}
	.st1{fill:#FFFFFF;}
</style>
<path id="Rectangle_4417" class="st0" d="M0,0h24v24H0V0z"/>
<g>
	<path class="st1" d="M12.9,14.3c0-0.5-0.4-0.9-0.9-0.9c-0.5,0-0.9,0.4-0.9,0.9c0,0.3,0.1,0.5,0.4,0.7c0.1,0.1,0.1,0.2,0.1,0.3
		l-0.4,2.3h1.7l-0.4-2.3c0-0.1,0-0.2,0.1-0.3C12.8,14.9,12.9,14.6,12.9,14.3z"/>
	<path class="st1" d="M18.5,10V8.5C18.5,4.9,15.6,2,12,2C8.4,2,5.5,4.9,5.5,8.5V10H4.2v4.2c0,4.2,3.4,7.7,7.7,7.8c0,0,0.1,0,0.1,0
		c2,0,3.9-0.8,5.4-2.2c1.5-1.5,2.4-3.6,2.4-5.7v-4H18.5z M13.5,17.9c0,0.1,0,0.2-0.1,0.3c-0.1,0.1-0.1,0.1-0.2,0.1h-2.4
		c-0.1,0-0.2,0-0.2-0.1c-0.1-0.1-0.1-0.2-0.1-0.3l0.4-2.5c-0.3-0.3-0.5-0.7-0.5-1.1c0-0.8,0.7-1.5,1.5-1.5c0.8,0,1.5,0.7,1.5,1.5
		c0,0.4-0.2,0.8-0.4,1.1L13.5,17.9z M15.9,10H8.1V8.5c0-2.1,1.7-3.9,3.9-3.9c2.1,0,3.9,1.8,3.9,3.9V10z"/>
</g>
</svg>
