<?xml version="1.0" encoding="utf-8"?>
<!-- Generator: Adobe Illustrator 24.2.3, SVG Export Plug-In . SVG Version: 6.00 Build 0)  -->
<svg version="1.1" id="Group_9058" xmlns="http://www.w3.org/2000/svg" xmlns:xlink="http://www.w3.org/1999/xlink" x="0px" y="0px"
	 viewBox="0 0 100 100" style="enable-background:new 0 0 100 100;" xml:space="preserve">
<style type="text/css">
	.st0{fill:none;}
	.st1{fill:#7A7A7C;}
</style>
<path id="Rectangle_4716" class="st0" d="M0,0h100v100H0V0z"/>
<g>
	<g>
		<path class="st1" d="M90.4,30.3V19c0-0.5-0.2-0.9-0.7-1.2L82.6,14V8.3C82.6,7.6,82,7,81.3,7h-60H10.9c-0.7,0-1.3,0.6-1.3,1.3v83.4
			c0,0.7,0.6,1.3,1.3,1.3h10.4h60c0.7,0,1.3-0.6,1.3-1.3V86l7.1-3.8c0.4-0.2,0.7-0.7,0.7-1.2V69.7c0-0.5-0.2-0.9-0.7-1.2l-3.1-1.7
			l3.1-1.7c0.4-0.2,0.7-0.7,0.7-1.2V52.8c0-0.5-0.2-0.9-0.7-1.2L86.6,50l3.1-1.7c0.4-0.2,0.7-0.7,0.7-1.2V35.9
			c0-0.5-0.2-0.9-0.7-1.2l-3.1-1.7l3.1-1.7C90.1,31.2,90.4,30.8,90.4,30.3z M12.2,9.6H20v80.8h-7.8V9.6z M80,90.4H22.6V9.6H80v5.2
			v16.9v0.2v16.7v0.3v16.5v0.1v19.7V90.4z M87.8,80.2L82.6,83V67.7l5.2,2.8V80.2z M87.8,63.3l-3.9,2.1l-1.3-0.7V50.8l5.2,2.8V63.3z
			 M87.8,46.4l-3.9,2.1l-1.3-0.7V33.9l5.2,2.8V46.4z M87.8,29.5l-3.9,2.1l-1.3-0.7V17l5.2,2.8V29.5z"/>
	</g>
	<g>
		<path class="st1" d="M64.4,26.5H38.2c-3.6,0-6.4,2.9-6.4,6.4v8c0,3.6,2.9,6.5,6.4,6.5h26.2c3.5,0,6.4-2.9,6.4-6.5v-8
			C70.9,29.4,68,26.5,64.4,26.5z M68.2,40.9c0,2.1-1.7,3.9-3.8,3.9H38.2c-2.1,0-3.8-1.7-3.8-3.9v-8c0-2.1,1.7-3.8,3.8-3.8h26.2
			c2.1,0,3.8,1.7,3.8,3.8V40.9z"/>
	</g>
	<g>
		<path class="st1" d="M44.8,55.2h22.1c0.7,0,1.3-0.6,1.3-1.3c0-0.7-0.6-1.3-1.3-1.3H44.8c-0.7,0-1.3,0.6-1.3,1.3
			C43.5,54.6,44.1,55.2,44.8,55.2z"/>
	</g>
	<g>
		<path class="st1" d="M37,52.5h-3.9c-0.7,0-1.3,0.6-1.3,1.3c0,0.7,0.6,1.3,1.3,1.3H37c0.7,0,1.3-0.6,1.3-1.3
			C38.3,53.2,37.7,52.5,37,52.5z"/>
	</g>
	<g>
		<path class="st1" d="M69.5,60.4H44.8c-0.7,0-1.3,0.6-1.3,1.3c0,0.7,0.6,1.3,1.3,1.3h24.8c0.7,0,1.3-0.6,1.3-1.3
			C70.9,61,70.3,60.4,69.5,60.4z"/>
	</g>
	<g>
		<path class="st1" d="M37,60.4h-3.9c-0.7,0-1.3,0.6-1.3,1.3c0,0.7,0.6,1.3,1.3,1.3H37c0.7,0,1.3-0.6,1.3-1.3
			C38.3,61,37.7,60.4,37,60.4z"/>
	</g>
	<g>
		<path class="st1" d="M64.3,68.2H44.8c-0.7,0-1.3,0.6-1.3,1.3c0,0.7,0.6,1.3,1.3,1.3h19.6c0.7,0,1.3-0.6,1.3-1.3
			C65.6,68.8,65.1,68.2,64.3,68.2z"/>
	</g>
	<g>
		<path class="st1" d="M37,68.2h-3.9c-0.7,0-1.3,0.6-1.3,1.3c0,0.7,0.6,1.3,1.3,1.3H37c0.7,0,1.3-0.6,1.3-1.3
			C38.3,68.8,37.7,68.2,37,68.2z"/>
	</g>
</g>
</svg>
