<?xml version="1.0" encoding="utf-8"?>
<!-- Generator: Adobe Illustrator 24.2.3, SVG Export Plug-In . SVG Version: 6.00 Build 0)  -->
<svg version="1.1" id="Calque_1" xmlns="http://www.w3.org/2000/svg" xmlns:xlink="http://www.w3.org/1999/xlink" x="0px" y="0px"
	 viewBox="0 0 49 60" style="enable-background:new 0 0 49 60;" xml:space="preserve">
<style type="text/css">
	.st0{fill:#FFFFFF;}
</style>
<path class="st0" d="M44.8,13.2L28.7,4c-2.7-1.4-5.8-1.4-8.5,0l-16,9.3C1.6,14.9,0,17.7,0,20.7v18.4c0,3,1.6,5.8,4.2,7.4l16,9.4
	c2.6,1.6,5.9,1.6,8.5,0l16-9.3c2.6-1.5,4.2-4.3,4.2-7.4V20.6C49,17.6,47.4,14.8,44.8,13.2z M18.3,24.2l2.9,2.2l-3,1L18.3,24.2z
	 M23.3,33.7l0.6-0.8v1.8L23.3,33.7z M23.8,36.5L23.6,37l-0.1-0.3L23.8,36.5z M22.7,37l0.5-0.2l0.1,0.4L22.7,37z M23.3,37.6L23,38
	l-0.3-0.7L23.3,37.6z M23,33.3l-1.1-1h1.8L23,33.3z M21.4,31.6L21,30.1l2.1,0L21.4,31.6z M21.4,38l-0.1,1.1l-0.9-0.8L21.4,38z
	 M21.7,38.1l0.8,0.4l-0.9,0.7L21.7,38.1z M21.9,37.7l0.3-0.4l0.4,0.7L21.9,37.7z M21.9,31.8l1.7-1.4l0.3,1.4H21.9z M21,29.6l0.9-2.4
	l1.4,2.5L21,29.6z M20.5,29.4l-2-1.5l2.9-1L20.5,29.4z M20.3,35.6l0.1,0.6L20,35.9L20.3,35.6z M19.8,35.6l-0.3-0.9l0.6,0.5
	L19.8,35.6z M17,34.4l0.9,2l-2-1L17,34.4z M15.8,32.1l1.3-0.2l-0.9,1.4L15.8,32.1z M17.7,35.1l0.8,0.9l-0.2,0.4L17.7,35.1z
	 M18.5,37.7l-0.9,0.9l0.6-1.4L18.5,37.7z M17.4,34.2l1.5,0.1l-0.4,1.3L17.4,34.2z M19.2,34.8l0.3,1l-0.6,0L19.2,34.8z M17.7,27.5
	l-2.1-0.1l2.2-2.9L17.7,27.5z M17.6,23.8L15.2,27l-1.4-3.7L17.6,23.8z M13.6,24.5l1.2,3l-1.2,0.9L13.6,24.5z M13,23.5l0,4.9
	l-3.8-3.1L13,23.5z M8.8,25.7l3.7,3l-5.1,0.1L8.8,25.7z M7.4,29.4l5.2-0.1l-3.8,3.5L7.4,29.4z M12.6,34.5l-3.3-1.3l3.8-1.8
	L12.6,34.5z M10.2,32.2l2.9-2.6l0.1,1.2L10.2,32.2z M13.7,31.3L15,32l-1.7,2L13.7,31.3z M13.7,34.4l1.7-2l0.4,1.3L13.7,34.4z
	 M15.7,35.8l2,0.9l-2,0.5L15.7,35.8z M15.9,37.6l2-0.5l-0.9,2L15.9,37.6z M17.5,39.3l1.2-1.2l0.4,1.7L17.5,39.3z M19,38l0.8,0.3
	l-0.5,1.1L19,38z M19.6,39.7l0.5-1.3l1,0.9L19.6,39.7z M24.2,48.1l-3-5.1l3,1.1V48.1z M24.2,43.5l-3.1-1.2l3.1-3.8V43.5z M24.2,28.5
	l-4.9-13.4l4.9,1.5V28.5z M24.2,16l-4.9-1.5c1.1-1.6,2.9-2.6,4.9-2.7V16z M41.6,28.9l-5.1-0.1l3.7-3L41.6,28.9z M39.8,25.3L36,28.4
	l0-4.9L39.8,25.3z M35.4,28.4l-1.2-0.9l1.2-3L35.4,28.4z M35.3,23.4L33.8,27l-2.4-3.2L35.3,23.4z M33.4,27.4l-2.1,0.1l-0.1-3
	L33.4,27.4z M28.9,35.2l0.6-0.5l-0.3,0.9L28.9,35.2z M29,35.9l-0.4,0.2l0.1-0.6L29,35.9z M28.5,29.4l-0.9-2.5l2.9,1L28.5,29.4z
	 M26.4,37.3L26,38l-0.3-0.4L26.4,37.3z M25.7,37.2l0.1-0.4l0.5,0.2L25.7,37.2z M26,33.3l-0.7-1h1.8L26,33.3z M25,34.6v-1.8l0.6,0.8
	L25,34.6z M25.4,36.7L25.4,37l-0.2-0.5L25.4,36.7z M25.1,31.8l0.3-1.4l1.7,1.4H25.1z M27.1,37.7L26.4,38l0.4-0.7L27.1,37.7z
	 M27.3,38.1l0.1,1l-0.9-0.7L27.3,38.1z M26,30.1l2.1,0l-0.4,1.5L26,30.1z M25.7,29.6l1.4-2.5l0.9,2.4L25.7,29.6z M28.6,38.3
	l-0.9,0.8L27.6,38L28.6,38.3z M29.8,34.8l0.3,1l-0.6,0L29.8,34.8z M30,34.3l1.5-0.1l-1.2,1.4L30,34.3z M30.7,36.4L30.5,36l0.8-0.9
	L30.7,36.4z M30.7,37.2l0.6,1.4l-0.9-0.9L30.7,37.2z M32,34.4l1.1,1.1l-2,1L32,34.4z M32.8,33.3l-0.9-1.4l1.3,0.2L32.8,33.3z
	 M30.8,27.4l-3-1l2.9-2.2L30.8,27.4z M24.8,11.8c2,0.1,3.8,1.1,4.9,2.7L24.8,16V11.8z M24.8,16.6l4.9-1.5l-4.9,13.4V16.6z
	 M24.8,48.1v-4l3-1.1L24.8,48.1z M24.8,43.5v-5l3.1,3.8L24.8,43.5z M27.9,39.4l1-0.9l0.5,1.3L27.9,39.4z M29.2,38.3L30,38l-0.3,1.4
	L29.2,38.3z M30,39.7l0.4-1.7l1.2,1.2L30,39.7z M31.9,39l-0.9-2l2,0.5L31.9,39z M33.3,37.3l-2-0.5l2-0.9L33.3,37.3z M33.3,33.8
	l0.4-1.3l1.7,2L33.3,33.8z M34,32l1.3-0.7l0.4,2.7L34,32z M35.9,29.5l2.9,2.6l-3-1.4L35.9,29.5z M36.4,34.5l-0.5-3.2l3.8,1.8
	L36.4,34.5z M40.2,32.8l-3.8-3.5l5.2,0.1L40.2,32.8z"/>
</svg>
