<?xml version="1.0" encoding="utf-8"?>
<!-- Generator: Adobe Illustrator 24.2.3, SVG Export Plug-In . SVG Version: 6.00 Build 0)  -->
<svg version="1.1" id="ic_empty_Dark_masternode" xmlns="http://www.w3.org/2000/svg" xmlns:xlink="http://www.w3.org/1999/xlink"
	 x="0px" y="0px" viewBox="0 0 100 100" style="enable-background:new 0 0 100 100;" xml:space="preserve">
<style type="text/css">
	.st0{fill:none;}
	.st1{fill:#7A7A7C;}
</style>
<path id="Rectangle_4704" class="st0" d="M0,0h100v100H0V0z"/>
<g>
	<path class="st1" d="M84.3,32.4c4.8,0,8.7-3.9,8.7-8.7S89.1,15,84.3,15c-4.8,0-8.7,3.9-8.7,8.7c0,1.2,0.3,2.4,0.7,3.4L57.7,40.6
		c-2.1-1.9-4.9-3.1-8-3.1c-0.1,0-0.2,0-0.3,0l-3.7-12.8c1.9-0.8,3.2-2.7,3.2-4.9c0-3-2.4-5.4-5.4-5.4c-3,0-5.4,2.4-5.4,5.4
		c0,3,2.4,5.4,5.4,5.4c0.2,0,0.4,0,0.6-0.1l3.7,12.6c-3.5,0.6-6.5,2.7-8.3,5.6l-16.3-7c0.1-0.5,0.1-1,0.1-1.5c0-4.5-3.7-8.2-8.2-8.2
		c-4.5,0-8.2,3.7-8.2,8.2s3.7,8.2,8.2,8.2c3.5,0,6.4-2.2,7.6-5.2l16,6.9c-0.7,1.5-1.1,3.1-1.1,4.9c0,3.3,1.4,6.4,3.6,8.5L27,65.9
		c-0.9-1.1-2.3-1.8-3.8-1.8c-2.7,0-5,2.2-5,5c0,2.7,2.2,5,5,5c2.7,0,5-2.2,5-5c0-0.7-0.1-1.3-0.4-1.8l14.9-8.1
		c1.8,1.3,3.9,2.2,6.3,2.3l-0.6,10.8c-3.4,0.3-6.1,3.2-6.1,6.7c0,3.7,3,6.8,6.8,6.8s6.8-3,6.8-6.8c0-3.4-2.6-6.3-5.9-6.7l0.6-10.8
		c2.9-0.2,5.4-1.3,7.4-3.2l16.6,12.7c-0.5,0.9-0.8,1.9-0.8,3c0,3.6,2.9,6.5,6.5,6.5c3.6,0,6.5-2.9,6.5-6.5c0-3.6-2.9-6.5-6.5-6.5
		c-1.6,0-3.1,0.6-4.2,1.6L59.4,56.4c1.4-2,2.3-4.4,2.3-7c0-2.3-0.7-4.5-1.8-6.3l18.3-13.3C79.8,31.4,81.9,32.4,84.3,32.4z
		 M15.2,40.4c-3.1,0-5.6-2.5-5.6-5.6c0-3.1,2.5-5.6,5.6-5.6s5.6,2.5,5.6,5.6C20.8,37.8,18.3,40.4,15.2,40.4z M84.3,17.5
		c3.4,0,6.1,2.7,6.1,6.1s-2.7,6.1-6.1,6.1c-3.4,0-6.1-2.7-6.1-6.1S80.9,17.5,84.3,17.5z M53.2,78.8c0,2.3-1.9,4.2-4.2,4.2
		c-2.3,0-4.2-1.9-4.2-4.2c0-2.3,1.9-4.2,4.2-4.2C51.3,74.6,53.2,76.5,53.2,78.8z M49.7,59c-5.3,0-9.6-4.3-9.6-9.6
		c0-5.3,4.3-9.6,9.6-9.6c5.3,0,9.6,4.3,9.6,9.6C59.3,54.7,55,59,49.7,59z"/>
	<path class="st1" d="M49.7,42.9c-3.6,0-6.5,2.9-6.5,6.5s2.9,6.5,6.5,6.5c3.6,0,6.5-2.9,6.5-6.5S53.3,42.9,49.7,42.9z"/>
</g>
</svg>
