<?xml version="1.0" encoding="utf-8"?>
<!-- Generator: Adobe Illustrator 24.2.3, SVG Export Plug-In . SVG Version: 6.00 Build 0)  -->
<svg version="1.1" id="ic_empty_transactions" xmlns="http://www.w3.org/2000/svg" xmlns:xlink="http://www.w3.org/1999/xlink"
	 x="0px" y="0px" viewBox="0 0 100 100" style="enable-background:new 0 0 100 100;" xml:space="preserve">
<style type="text/css">
	.st0{fill:none;}
	.st1{fill:#D6D6D6;}
</style>
<path id="Rectangle_4668" class="st0" d="M0,0h100v100H0V0z"/>
<g>
	<g>
		<path class="st1" d="M28.4,21.6c0.3,0,0.6-0.1,0.9-0.3c0.5-0.5,0.6-1.3,0.1-1.9c-0.5-0.5-1.3-0.5-1.8-0.1
			c-0.5,0.5-0.6,1.3-0.1,1.9C27.7,21.5,28,21.6,28.4,21.6z"/>
	</g>
	<g>
		<path class="st1" d="M39.5,14.5c0.2,0,0.3,0,0.5-0.1c0.7-0.3,1-1,0.7-1.7c-0.3-0.7-1.1-1-1.7-0.7h0c-0.7,0.3-1,1-0.7,1.7
			C38.5,14.2,39,14.5,39.5,14.5z"/>
	</g>
	<g>
		<path class="st1" d="M43.1,83.1c-0.7-0.2-1.4,0.2-1.6,0.9c-0.2,0.7,0.2,1.4,0.9,1.6c0.1,0,0.3,0.1,0.4,0.1c0.5,0,1.1-0.3,1.2-0.9
			C44.2,84.1,43.8,83.3,43.1,83.1z"/>
	</g>
	<g>
		<path class="st1" d="M52.3,11.6c0.1,0,0.1,0,0.2,0h0.1c0.7,0,1.3-0.7,1.3-1.4c0-0.8-0.7-1.3-1.4-1.3c0,0-0.1,0-0.1,0h0
			c-0.3,0-0.7,0.1-0.9,0.3C51.1,9.6,51,10,51,10.3s0.1,0.7,0.4,0.9C51.6,11.5,52,11.6,52.3,11.6z"/>
	</g>
	<g>
		<path class="st1" d="M21.4,67.5c-0.6,0.4-0.8,1.2-0.4,1.8c0.2,0.4,0.7,0.6,1.1,0.6c0.2,0,0.5,0,0.7-0.2c0.6-0.4,0.8-1.2,0.4-1.8
			C22.8,67.3,22,67.1,21.4,67.5z"/>
	</g>
	<g>
		<path class="st1" d="M16.8,55.2c-0.7,0.2-1.1,0.9-1,1.6c0.1,0.6,0.7,1,1.3,1c0.1,0,0.2,0,0.3,0c0.7-0.2,1.1-0.9,1-1.6
			S17.5,55,16.8,55.2z"/>
	</g>
	<g>
		<path class="st1" d="M30,77.5c-0.4,0.6-0.3,1.4,0.2,1.9c0.2,0.2,0.5,0.3,0.8,0.3c0.4,0,0.8-0.2,1-0.5c0.4-0.6,0.3-1.4-0.3-1.9
			C31.3,76.8,30.4,76.9,30,77.5z"/>
	</g>
	<g>
		<path class="st1" d="M88.3,64.5c-0.6-0.3-1.4-0.1-1.8,0.5c-0.3,0.7-0.1,1.4,0.6,1.8c0.2,0.1,0.4,0.2,0.6,0.2
			c0.5,0,0.9-0.3,1.1-0.7C89.2,65.7,89,64.9,88.3,64.5z"/>
	</g>
	<g>
		<path class="st1" d="M91.4,41.3c0.7-0.2,1.1-0.9,1-1.5s-0.9-1.2-1.5-1c-0.7,0.2-1.2,0.9-1,1.6c0.1,0.6,0.7,1,1.3,1
			C91.2,41.3,91.3,41.3,91.4,41.3z"/>
	</g>
	<g>
		<path class="st1" d="M91.8,51.8c-0.7-0.1-1.4,0.4-1.5,1.1c-0.1,0.7,0.4,1.4,1.1,1.5c0.1,0,0.1,0,0.2,0c0.7,0,1.2-0.5,1.3-1.1
			C93.1,52.6,92.6,51.9,91.8,51.8z"/>
	</g>
	<g>
		<path class="st1" d="M78.8,75.2L78.8,75.2c-0.5,0.5-0.6,1.3-0.1,1.9c0.2,0.3,0.6,0.4,1,0.4c0.3,0,0.6-0.1,0.9-0.3
			c0.5-0.5,0.6-1.3,0.1-1.9C80.2,74.7,79.3,74.7,78.8,75.2z"/>
	</g>
	<g>
		<path class="st1" d="M65.1,13.3c0.1,0,0.3,0,0.4,0c0.5,0,1.1-0.3,1.2-0.9c0.2-0.7-0.2-1.4-0.9-1.7c-0.7-0.2-1.4,0.2-1.6,0.9
			C64,12.3,64.4,13.1,65.1,13.3z"/>
	</g>
	<g>
		<path class="st1" d="M55.7,84.8c-0.7,0-1.3,0.6-1.3,1.4c0,0.7,0.6,1.3,1.3,1.3c0,0,0,0,0.1,0c0.7,0,1.3-0.7,1.2-1.4
			C57,85.3,56.4,84.7,55.7,84.8z"/>
	</g>
	<g>
		<path class="st1" d="M21.2,29.8c-4.3,0-7.8,3.5-7.8,7.7s3.5,7.7,7.8,7.7c4.3,0,7.7-3.5,7.7-7.7S25.4,29.8,21.2,29.8z M21.2,42.7
			c-2.8,0-5.1-2.3-5.1-5.1c0-2.8,2.3-5.1,5.1-5.1c2.8,0,5.1,2.3,5.1,5.1C26.3,40.4,24,42.7,21.2,42.7z"/>
	</g>
	<g>
		<path class="st1" d="M80.9,28.5c2.5,0,4.5-2,4.5-4.5s-2-4.5-4.5-4.5c-2.5,0-4.5,2-4.5,4.5S78.4,28.5,80.9,28.5z M80.9,22.1
			c1,0,1.9,0.9,1.9,1.9c0,1-0.9,1.9-1.9,1.9C79.8,25.9,79,25,79,24C79,23,79.8,22.1,80.9,22.1z"/>
	</g>
	<g>
		<path class="st1" d="M68.7,75.6c-1.7,0-3.3,0.5-4.6,1.5L32.2,46.4c1.9-2.4,3.1-5.5,3.1-8.8c0-0.6-0.1-1.2-0.1-1.9l35.4-8
			c1.5,4.3,5.6,7.3,10.3,7.3c6,0,10.9-4.9,10.9-10.9c0-6-4.9-10.9-10.9-10.9c-6.1,0-11,4.9-11,10.9c0,0.4,0,0.8,0.1,1.1l-35.4,8
			c-1.9-5.6-7.2-9.7-13.4-9.7C13.3,23.4,7,29.8,7,37.6s6.4,14.2,14.2,14.2c3.5,0,6.7-1.3,9.2-3.4L62.3,79c-0.9,1.2-1.3,2.7-1.3,4.3
			c0,4.3,3.5,7.7,7.7,7.7c4.3,0,7.7-3.5,7.7-7.7S72.9,75.6,68.7,75.6z M80.9,15.7c4.6,0,8.3,3.7,8.3,8.3s-3.7,8.4-8.3,8.4
			c-4.6,0-8.3-3.8-8.3-8.4S76.3,15.7,80.9,15.7z M21.2,49.1c-6.4,0-11.5-5.2-11.5-11.5c0-6.4,5.2-11.6,11.5-11.6
			c6.4,0,11.5,5.2,11.5,11.6C32.7,43.9,27.5,49.1,21.2,49.1z M68.7,88.4c-2.8,0-5.1-2.3-5.1-5.1c0-2.8,2.3-5.1,5.1-5.1
			c2.8,0,5.1,2.3,5.1,5.1C73.8,86.1,71.5,88.4,68.7,88.4z"/>
	</g>
	<g>
		<path class="st1" d="M68.7,82c-0.7,0-1.3,0.6-1.3,1.3s0.6,1.3,1.3,1.3c0.7,0,1.3-0.6,1.3-1.3S69.4,82,68.7,82z"/>
	</g>
</g>
</svg>
