<?xml version="1.0" encoding="utf-8"?>
<!-- Generator: Adobe Illustrator 24.2.3, SVG Export Plug-In . SVG Version: 6.00 Build 0)  -->
<svg version="1.1" id="Calque_1" xmlns="http://www.w3.org/2000/svg" xmlns:xlink="http://www.w3.org/1999/xlink" x="0px" y="0px"
	 viewBox="0 0 300 100" style="enable-background:new 0 0 300 100;" xml:space="preserve">
<style type="text/css">
	.st0{fill:#FFFFFF;}
	.st1{fill:#170299;}
	.st2{fill:url(#SVGID_1_);}
	.st3{fill:#EAC654;}
	.st4{fill:#C8992E;}
	.st5{fill:#F9DF7B;}
	.st6{fill:#B57E10;}
</style>
<desc>Created with Sketch.</desc>
<g>
	<g>
		<path class="st0" d="M112.3,67.2c-11.7,0-17.8-8.4-17.8-18.5c0-10.1,6.1-18.5,17.8-18.5c11.8,0,17.7,8.3,17.7,18.5
			C130,58.8,124.1,67.2,112.3,67.2z M112.3,31.3c-5.9,0-9.9,3.5-9.9,17.5s4,17.5,9.9,17.5c5.8,0,9.8-3.5,9.8-17.5
			S118.2,31.3,112.3,31.3z"/>
		<path class="st0" d="M141.4,65.6c11.5,0,16.1-3.8,17.2-10.8h1l-0.7,11.7h-26.1L152.7,32c-10.3,0-16.5,1.9-17.8,9.1h-1l0.4-10.1
			h26.1L141.4,65.6z"/>
		<path class="st0" d="M193.9,57.4c-0.8,3.6-5.1,9.8-14.1,9.8c-9.6,0-16.5-8-16.5-18.1c0-11.4,7.2-18.8,16.8-18.8
			c8.9,0,15.1,5.7,15.1,17.8h-24.6c0.3,10.4,4.9,14.5,11,15.1c4.6,0.5,10.1-2.4,11.5-6.1L193.9,57.4z M188.5,47.1
			c0-11.2-5-15.8-8.7-15.8c-4.4,0-9.3,6.1-9.3,15.8H188.5z"/>
		<path class="st0" d="M228.5,57.4c-0.8,3.6-5.1,9.8-14.1,9.8c-9.6,0-16.5-8-16.5-18.1c0-11.4,7.2-18.8,16.8-18.8
			c8.9,0,15.1,5.7,15.1,17.8h-24.6c0.3,10.4,4.9,14.5,11,15.1c4.6,0.5,10.1-2.4,11.5-6.1L228.5,57.4z M223.1,47.1
			c0-11.2-5-15.8-8.7-15.8c-4.4,0-9.3,6.1-9.3,15.8H223.1z"/>
		<path class="st0" d="M254.6,60.6c-1.1,3.4-4.5,6.6-9,6.6c-5.6,0-9-2.5-9-11.8V32h-3.9l-0.2-1h4.1V20.1l6.7-1.1v12h9.1l-0.2,1h-8.9
			v23.2c0,6.1,2.2,8.2,5.8,8.2c2.2,0,4.1-1.6,4.7-3.2L254.6,60.6z"/>
		<path class="st0" d="M294.9,31v0.9c-2.7,0-5.3,0.7-9.8,12.3l-11.9,32.5c-1.5,4.5-3.6,6.2-4.7,7.1c-1.1,0.8-3.2,1.2-4.6,0.5
			c-2.1-0.9-2.9-3.3-2.1-5.4c1-2.1,3.4-3,5.4-2.1c1.1,0.5,1.8,1.5,2.1,2.5c0.3,1.1,1.9,0,3-2.8l3.5-9.8c-9.1-20.2-14.4-31-14.4-31
			c-1.5-3.5-4.2-3.8-5.4-3.9V31h15.9v0.9c-5,0-2.3,5.6-2.3,5.6l9.5,20.4l5.1-14c0,0,4.8-12.1-4.1-12.1V31H294.9z"/>
	</g>
	<g>
		<path class="st1" d="M51.8,8.7l26,15c4.4,2.5,6.9,6.9,6.9,12v30.2c0,4.8-2.5,9.5-6.9,12l-26,15.2c-4.4,2.5-9.5,2.5-13.8,0
			l-26-15.2C7.5,75.3,5,71,5,65.9v-30c0-4.8,2.5-9.5,6.9-12L38,8.7C42.3,6.4,47.4,6.4,51.8,8.7z"/>
		
			<linearGradient id="SVGID_1_" gradientUnits="userSpaceOnUse" x1="23.9257" y1="777.6777" x2="66.2307" y2="840.5101" gradientTransform="matrix(1 0 0 1 0 -758)">
			<stop  offset="0" style="stop-color:#FFFFFF;stop-opacity:0.5"/>
			<stop  offset="1" style="stop-color:#FFFFFF;stop-opacity:0"/>
		</linearGradient>
		<path class="st2" d="M51.8,8.7l26,15c4.4,2.5,6.9,7.1,6.9,12v30.2c0,4.8-2.5,9.5-6.9,12l-26,15.2c-4.4,2.5-9.5,2.5-13.8,0
			l-26-15.2C7.5,75.3,5,70.7,5,65.9v-30c0-4.8,2.5-9.5,6.9-12L38,8.7C42.3,6.4,47.4,6.4,51.8,8.7z"/>
		<g>
			<polygon class="st3" points="20,43.1 27.1,48.8 27.4,39.4 			"/>
			<polygon class="st4" points="20,55.5 27.1,48.8 17.2,49.1 			"/>
			<polygon class="st5" points="27.4,51.8 27.1,48.8 20,55.5 			"/>
			<polygon class="st6" points="17.2,49.1 27.1,48.8 20,43.1 			"/>
			<polygon class="st4" points="31.5,56.7 30.6,53.4 26.4,58.1 			"/>
			<polygon class="st6" points="30.6,53.4 27.4,51.8 26.4,58.1 			"/>
			<polygon class="st3" points="26.4,58.1 27.4,51.8 20,55.5 			"/>
			<polygon class="st5" points="34,52.8 30.6,53.4 31.5,56.7 			"/>
			<polygon class="st6" points="34.5,47 34.7,40.3 30.1,46.5 			"/>
			<polygon class="st3" points="40.7,44.9 34.7,40.3 34.5,47 			"/>
			<polygon class="st4" points="34.7,40.3 27.4,39.4 30.1,46.5 			"/>
			<polygon class="st3" points="44.4,53.7 43.7,50.2 39.6,53.7 			"/>
			<polygon class="st5" points="27.4,39.4 27.1,48.8 30.1,46.5 			"/>
			<polygon class="st6" points="39.6,53.7 43.7,50.2 38.9,50.2 			"/>
			<polygon class="st4" points="43.7,50.2 40.7,44.9 38.9,50.2 			"/>
			<polygon class="st5" points="38.9,50.2 40.7,44.9 34.5,47 			"/>
			<polygon class="st5" points="39.6,53.7 42.6,56.2 44.4,53.7 			"/>
			<polygon class="st4" points="42.6,56.2 44.4,59.2 44.4,53.7 			"/>
			<polygon class="st3" points="44.9,80.4 44.9,72.3 38.9,70 			"/>
			<polygon class="st5" points="38.9,70 44.9,72.3 44.9,62.7 			"/>
			<polygon class="st6" points="44.9,80.4 44.9,72.3 50.9,70 			"/>
			<polygon class="st4" points="50.9,70 44.9,72.3 44.9,62.7 			"/>
			<polygon class="st3" points="30.8,62.2 35,61.1 33.1,65.2 			"/>
			<polygon class="st4" points="33.1,56.9 35,61.1 30.8,59 			"/>
			<polygon class="st5" points="35.7,59.9 35,61.1 33.1,56.9 			"/>
			<polygon class="st6" points="30.8,59 35,61.1 30.8,62.2 			"/>
			<polygon class="st4" points="38.4,58.5 37.3,59.9 36.6,56.9 			"/>
			<polygon class="st6" points="37.3,59.9 35.7,59.9 36.6,56.9 			"/>
			<polygon class="st3" points="36.6,56.9 35.7,59.9 33.1,56.9 			"/>
			<polygon class="st5" points="38.7,60.6 37.3,59.9 38.4,58.5 			"/>
			<polygon class="st6" points="37.7,63.4 36.6,66.1 35.9,62.7 			"/>
			<polygon class="st3" points="40,65.4 36.6,66.1 37.7,63.4 			"/>
			<polygon class="st4" points="36.6,66.1 33.1,65.2 35.9,62.7 			"/>
			<polygon class="st3" points="43.5,62.4 42.3,63.6 41.4,61.5 			"/>
			<polygon class="st5" points="33.1,65.2 35,61.1 35.9,62.7 			"/>
			<polygon class="st6" points="41.4,61.5 42.3,63.6 40.3,62.7 			"/>
			<polygon class="st4" points="42.3,63.6 40,65.4 40.3,62.7 			"/>
			<polygon class="st5" points="40.3,62.7 40,65.4 37.7,63.4 			"/>
			<polygon class="st5" points="41.4,61.5 43,60.8 43.5,62.4 			"/>
			<polygon class="st4" points="43,60.8 44.4,59.9 43.5,62.4 			"/>
			<polygon class="st3" points="58.9,62.2 54.8,61.1 56.4,65.2 			"/>
			<polygon class="st4" points="56.6,56.9 54.8,61.1 58.9,59 			"/>
			<polygon class="st5" points="54.1,59.9 54.8,61.1 56.6,56.9 			"/>
			<polygon class="st6" points="58.9,59 54.8,61.1 58.9,62.2 			"/>
			<polygon class="st4" points="51.3,58.5 52.5,59.9 53.2,56.9 			"/>
			<polygon class="st6" points="52.5,59.9 54.1,59.9 53.2,56.9 			"/>
			<polygon class="st3" points="53.2,56.9 54.1,59.9 56.6,56.9 			"/>
			<polygon class="st5" points="51.1,60.6 52.5,59.9 51.3,58.5 			"/>
			<polygon class="st6" points="52,63.4 53.2,66.1 53.9,62.7 			"/>
			<polygon class="st3" points="49.7,65.4 53.2,66.1 52,63.4 			"/>
			<polygon class="st4" points="53.2,66.1 56.4,65.2 53.9,62.7 			"/>
			<polygon class="st3" points="46.3,62.4 47.4,63.6 48.3,61.5 			"/>
			<polygon class="st5" points="56.4,65.2 54.8,61.1 53.9,62.7 			"/>
			<polygon class="st6" points="48.3,61.5 47.4,63.6 49.5,62.7 			"/>
			<polygon class="st4" points="47.4,63.6 49.7,65.4 49.5,62.7 			"/>
			<polygon class="st5" points="49.5,62.7 49.7,65.4 52,63.4 			"/>
			<polygon class="st5" points="48.3,61.5 46.7,60.8 46.3,62.4 			"/>
			<polygon class="st4" points="46.7,60.8 45.3,59.9 46.3,62.4 			"/>
			<polygon class="st3" points="69.8,43.1 62.6,48.8 62.4,39.4 			"/>
			<polygon class="st4" points="70,55.5 62.6,48.8 72.5,49.1 			"/>
			<polygon class="st5" points="62.2,51.8 62.6,48.8 70,55.5 			"/>
			<polygon class="st6" points="72.5,49.1 62.6,48.8 69.8,43.1 			"/>
			<polygon class="st4" points="58.2,56.7 59.2,53.4 63.3,58.1 			"/>
			<polygon class="st6" points="59.2,53.4 62.2,51.8 63.3,58.1 			"/>
			<polygon class="st3" points="63.3,58.1 62.2,51.8 70,55.5 			"/>
			<polygon class="st5" points="55.7,52.8 59.2,53.4 58.2,56.7 			"/>
			<polygon class="st6" points="55.3,47 55,40.3 59.6,46.5 			"/>
			<polygon class="st3" points="49,44.9 55,40.3 55.3,47 			"/>
			<polygon class="st4" points="55,40.3 62.4,39.4 59.6,46.5 			"/>
			<polygon class="st3" points="45.3,53.7 46,50.2 49.9,53.7 			"/>
			<polygon class="st5" points="62.4,39.4 62.6,48.8 59.6,46.5 			"/>
			<polygon class="st6" points="49.9,53.7 46,50.2 50.9,50.2 			"/>
			<polygon class="st4" points="46,50.2 49,44.9 50.9,50.2 			"/>
			<polygon class="st5" points="50.9,50.2 49,44.9 55.3,47 			"/>
			<polygon class="st5" points="49.9,53.7 47.2,56.2 45.3,53.7 			"/>
			<polygon class="st4" points="47.2,56.2 45.3,59.2 45.3,53.7 			"/>
			<polygon class="st6" points="36.1,26.2 44.9,50.5 44.9,29 			"/>
			<polygon class="st3" points="53.6,26.2 44.9,50.5 44.9,29 			"/>
			<path class="st4" d="M36.1,26.2L36.1,26.2l8.8,2.8v-7.6C41.2,21.2,38,23.3,36.1,26.2z"/>
			<path class="st5" d="M44.9,21.4V29l8.8-2.8l0,0C51.8,23.3,48.6,21.2,44.9,21.4z"/>
		</g>
	</g>
</g>
</svg>
