<?xml version="1.0" encoding="utf-8"?>
<!-- Generator: Adobe Illustrator 24.2.3, SVG Export Plug-In . SVG Version: 6.00 Build 0)  -->
<svg version="1.1" id="ic_staking_on" xmlns="http://www.w3.org/2000/svg" xmlns:xlink="http://www.w3.org/1999/xlink" x="0px"
	 y="0px" viewBox="0 0 100 100" style="enable-background:new 0 0 100 100;" xml:space="preserve">
<style type="text/css">
	.st0{fill:none;}
	.st1{fill:#D6D6D6;}
</style>
<path id="Rectangle_4672" class="st0" d="M0,0h100v100H0V0z"/>
<g>
	<path class="st1" d="M91.6,29.2H68.9c2.8-2.3,4.7-5.8,4.7-9.7C73.6,12.6,68,7,61.1,7c-5.6,0-10.3,3.7-11.9,8.8
		c-1.8-2.3-4.6-3.7-7.7-3.7c-5.5,0-9.9,4.4-9.9,9.9c0,2.8,1.2,5.4,3.1,7.2H8.4c-2.3,0-4.2,1.9-4.2,4.2v8.3c0,2.3,1.9,4.2,4.2,4.2v43
		c0,2.3,1.9,4.2,4.2,4.2h33.6h7.6h33.6c2.3,0,4.2-1.9,4.2-4.2v-43c2.3,0,4.2-1.9,4.2-4.2v-8.3C95.8,31.1,93.9,29.2,91.6,29.2z
		 M51.4,19.5c0-5.3,4.3-9.7,9.7-9.7c5.3,0,9.7,4.4,9.7,9.7c0,5.4-4.4,9.7-9.7,9.7h-7.3h-2.4V22V19.5z M52.4,43.1h-4.9V32H50h2.4
		V43.1z M34.3,22c0-4,3.2-7.2,7.2-7.2c4,0,7.2,3.2,7.2,7.2v7.2h-2.4h-4.7C37.5,29.2,34.3,26,34.3,22z M7,41.7v-8.3
		C7,32.6,7.6,32,8.4,32h33.1h3.4v11.1h-35H8.4C7.6,43.1,7,42.4,7,41.7z M11.2,88.8v-43h33.6v44.4H12.5
		C11.8,90.2,11.2,89.6,11.2,88.8z M47.6,90.2V45.9h4.9v44.4H47.6z M88.8,88.8c0,0.8-0.6,1.4-1.4,1.4H55.2V45.9h33.6V88.8z M93,41.7
		c0,0.8-0.6,1.4-1.4,1.4h-1.4h-35V32h5.9h30.5c0.8,0,1.4,0.6,1.4,1.4V41.7z"/>
</g>
</svg>
