/* XPM */
static char *_a937b18a5d34f2de1eadc95b532ae66VeCb0pDzy38viqf2[] = {
/* columns rows colors chars-per-pixel */
"17 16 141 2 ",
"   c None",
".  c #725373",
"X  c #B57E10",
"o  c #AC7B26",
"O  c #AA7C32",
"+  c #9F7546",
"@  c #A47C4D",
"#  c #815D61",
"$  c #87676E",
"%  c #B4842B",
"&  c #BF943F",
"*  c #C19434",
"=  c #C19538",
"-  c #C3983F",
";  c #A6815B",
":  c #AC895D",
">  c #B89353",
",  c #BA9453",
"<  c #BA985F",
"1  c #9E8179",
"2  c #A28168",
"3  c #B99B6F",
"4  c #B69C7D",
"5  c #C29945",
"6  c #C89F42",
"7  c #CEA440",
"8  c #C7A04F",
"9  c #D1AA4B",
"0  c #DAB54F",
"q  c #CFAC5C",
"w  c #D4AF52",
"e  c #D1AD59",
"r  c #D3AF58",
"t  c #D5B052",
"y  c #D4B058",
"u  c #D8B459",
"i  c #E0BE5D",
"p  c #CBAC6E",
"a  c #D3B263",
"s  c #D8B764",
"d  c #DCBB63",
"f  c #DCBC65",
"g  c #C1A473",
"h  c #C7A970",
"j  c #C1A578",
"k  c #C8AE7D",
"l  c #CFB274",
"z  c #E2C162",
"x  c #E2C268",
"c  c #E5CA77",
"v  c #E8CC77",
"b  c #1B069B",
"n  c #1C089B",
"m  c #1E0A9C",
"M  c #210D9D",
"N  c #220E9E",
"B  c #24109F",
"V  c #25119F",
"C  c #26129F",
"Z  c #39259C",
"A  c #2815A1",
"S  c #2A17A1",
"D  c #2B18A2",
"F  c #2D1AA3",
"G  c #301DA4",
"H  c #301EA4",
"J  c #311FA5",
"K  c #3220A5",
"L  c #3422A6",
"P  c #3523A6",
"I  c #3624A7",
"U  c #3725A7",
"Y  c #3927A8",
"T  c #3D2CAA",
"R  c #3E2DAA",
"E  c #4E3791",
"W  c #4D389A",
"Q  c #4F3B9D",
"!  c #402FAB",
"~  c #4332AC",
"^  c #4433AD",
"/  c #4434AD",
"(  c #4535AD",
")  c #4737AE",
"_  c #4939AF",
"`  c #4A3AAF",
"'  c #4C3CB0",
"]  c #4E3FB1",
"[  c #675194",
"{  c #5C4BAD",
"}  c #5041B2",
"|  c #5141B3",
" . c #5343B3",
".. c #5646B5",
"X. c #5848B5",
"o. c #5949B6",
"O. c #5A4BB7",
"+. c #5B4CB7",
"@. c #5C4DB7",
"#. c #5D4EB8",
"$. c #5F50B9",
"%. c #6655B0",
"&. c #6253BA",
"*. c #6355BB",
"=. c #6456BB",
"-. c #6658BC",
";. c #695BBD",
":. c #6A5CBD",
">. c #7966A6",
",. c #6D60BF",
"<. c #7D6EB9",
"1. c #6F62C0",
"2. c #7063C0",
"3. c #7265C1",
"4. c #7467C2",
"5. c #7568C2",
"6. c #776BC3",
"7. c #786CC4",
"8. c #796DC4",
"9. c #7B6FC5",
"0. c #7C70C5",
"q. c #7E72C6",
"w. c #7F73C7",
"e. c #806683",
"r. c #806A99",
"t. c #8A759C",
"y. c #8E7BA5",
"u. c #907AA0",
"i. c #8679BE",
"p. c #8175C7",
"a. c #8378C9",
"s. c #8479C9",
"d. c #857AC9",
"f. c #887DCB",
"g. c #8A7FCB",
"h. c #968094",
"j. c #988196",
"k. c #A18583",
"l. c #A7939D",
"z. c #E0C782",
"x. c #8B81CC",
/* pixels */
"              0.p.7.              ",
"          p.x.f.s.p.0.:.          ",
"      7.x.x.f.i.l.7.6.,.:.O.      ",
"    s.x.g.d.u.* c z.,.:.*.&. .    ",
"  4.x.g.s.0.<.X u p -.&.@.X.}     ",
"  f.s.p.0.j.,.@ y h.%.r...} ' ^   ",
"  a.0.t.t x 5 : r g * f > _ ( T   ",
"  0.7.@ % l j d 5 v 2 e o . T U   ",
"  4.2.k.z 6 y.h w e.4 9 i W I G   ",
"  ,.:.*.>.; 0 1 , < 7 $ Q L G S   ",
"  =.*.#.o.{ e a 8 s 3 I G D S B   ",
"  ..o...| ' ) k - # K G S A M     ",
"    | ' _ ( ~ [ O Z D S A m b     ",
"      ( ^ T U L E S A M b         ",
"          I G D A M m b           ",
"              A M m               "
};
