/* XPM */
static char *_33177669f0844b6deff21d2ee087632BNxhLlZnDISLTw1O[] = {
/* columns rows colors chars-per-pixel */
"33 32 165 2 ",
"   c None",
".  c #5C407B",
"X  c #7D5C6B",
"o  c #715275",
"O  c #B57E10",
"+  c #B27E1C",
"@  c #8D613E",
"#  c #AD7D2D",
"$  c #A87830",
"%  c #825C56",
"&  c #966E4F",
"*  c #986E45",
"=  c #9A7044",
"-  c #95715B",
";  c #99745B",
":  c #A67E4B",
">  c #A57E51",
",  c #A37E5A",
"<  c #8B6B69",
"1  c #937168",
"2  c #846572",
"3  c #8C6C72",
"4  c #886B7B",
"5  c #91777E",
"6  c #A07F67",
"7  c #BF8C1E",
"8  c #B88623",
"9  c #B28128",
"0  c #B9892A",
"q  c #B48531",
"w  c #BE8F30",
"e  c #BA8E3B",
"r  c #BE9136",
"t  c #C8992E",
"y  c #C29534",
"u  c #C89C38",
"i  c #CEA239",
"p  c #D1A63C",
"a  c #AB834C",
"s  c #BD9547",
"d  c #BC9349",
"f  c #B58F53",
"g  c #BB9552",
"h  c #BB985F",
"j  c #B7925A",
"k  c #9A807E",
"l  c #A7886C",
"z  c #AC8A67",
"x  c #B3936C",
"c  c #B89969",
"v  c #B99D75",
"b  c #BEA071",
"n  c #BEA37D",
"m  c #C59C43",
"M  c #CBA245",
"N  c #CAA44F",
"B  c #D6B14F",
"V  c #DBB54D",
"C  c #C7A150",
"Z  c #CCA95C",
"A  c #CCA754",
"S  c #D3AC51",
"D  c #D2AE58",
"F  c #D7B150",
"G  c #D6B35A",
"H  c #D9B557",
"J  c #E0B847",
"K  c #E4BF51",
"L  c #E0BF5F",
"P  c #C7A769",
"I  c #D8B866",
"U  c #C7A870",
"Y  c #CAAD73",
"T  c #D7BC7A",
"R  c #EAC654",
"E  c #EECC5E",
"W  c #E4C25A",
"Q  c #DFC16E",
"!  c #DEC171",
"~  c #E1C164",
"^  c #E4C66F",
"/  c #EED06D",
"(  c #E3C674",
")  c #E0C578",
"_  c #E3C87A",
"`  c #E7CB76",
"'  c #EDD37D",
"]  c #F2D97D",
"[  c #F9DF7B",
"{  c #170299",
"}  c #1A059A",
"|  c #1E0A9C",
" . c #220E9E",
".. c #25119F",
"X. c #2613A0",
"o. c #2916A1",
"O. c #2D1AA3",
"+. c #301EA4",
"@. c #3523A6",
"#. c #3826A7",
"$. c #3927A8",
"%. c #3C2BA9",
"&. c #3D29A0",
"*. c #412A91",
"=. c #4E3A9D",
"-. c #503D9E",
";. c #402FAB",
":. c #4434AD",
">. c #4939AF",
",. c #4936A2",
"<. c #513FA7",
"1. c #4D3DB1",
"2. c #654B85",
"3. c #664F8E",
"4. c #745B88",
"5. c #745C93",
"6. c #77629A",
"7. c #5645AC",
"8. c #5B4BAF",
"9. c #4F40B2",
"0. c #5444B4",
"q. c #5A4AB6",
"w. c #5E4FB8",
"e. c #5F50B9",
"r. c #6854A0",
"t. c #6E5DAB",
"y. c #6857B3",
"u. c #6C5CB4",
"i. c #6254BA",
"p. c #6658BC",
"a. c #6A5CBE",
"s. c #6454B1",
"d. c #7767AF",
"f. c #7B69AD",
"g. c #6E61BF",
"h. c #7969B7",
"j. c #6F62C0",
"k. c #7265C1",
"l. c #766AC3",
"z. c #796DC4",
"x. c #7E72C6",
"c. c #896F84",
"v. c #89718E",
"b. c #957C84",
"n. c #856D91",
"m. c #816D9F",
"M. c #8F799A",
"N. c #967F94",
"B. c #8876A6",
"V. c #8A7AB5",
"C. c #8175C7",
"Z. c #8277C8",
"A. c #857AC9",
"S. c #897ECB",
"D. c #9C8287",
"F. c #948097",
"G. c #978298",
"H. c #A18889",
"J. c #AE968C",
"K. c #A28E9D",
"L. c #9181AE",
"P. c #CEB582",
"I. c #C9B396",
"U. c #DDC481",
"Y. c #8B81CC",
/* pixels */
"                            x.S.S.Z.g.                            ",
"                        z.Y.Y.Y.A.A.Z.C.a.                        ",
"                    k.S.Y.S.S.A.Z.Z.C.z.z.k.                      ",
"                  A.Y.S.S.S.A.Z.Z.C.z.z.z.k.k.p.                  ",
"              x.Y.Y.Y.S.A.A.Z.C.x.z.z.z.g.k.g.g.a.q.              ",
"          k.Y.Y.Y.S.S.A.C.C.N.f P.I.V.k.g.g.a.p.p.i.i.            ",
"        S.Y.Y.Y.S.A.Z.C.C.z t t _ [ [ L.g.a.p.p.i.i.w.q.q.        ",
"      Y.Y.Y.Y.S.A.Z.Z.C.z.0 e t ` ' ` J.a.p.i.i.w.w.q.q.0.0.      ",
"    x.Y.Y.Y.A.A.Z.Z.x.z.z.; O O G R R d.p.i.i.w.q.q.0.0.0.1.      ",
"    Y.S.A.A.Z.Z.x.z.z.l.l.f.O O G R U i.i.w.w.q.q.0.0.0.1.1.:.    ",
"    S.A.A.Z.x.x.x.z.l.k.k.g.$ O G R N.i.w.q.q.0.0.0.1.1.1.>.:.    ",
"    A.Z.x.x.x.l.z.B.M.f.a.a.3 O D R y.w.q.5.n.0.0.1.1.>.:.:.:.    ",
"    Z.x.x.z.z.V.n E G t m H.y.O D v s.Z y t ^ G v.1.>.:.:.:.%.    ",
"    x.x.z.l.h.9 J E ' r m R Y * D H.I R 7 p ` R i = :.:.;.%.$.    ",
"    x.l.l.k.1 O + V ] ; P ] ! - A f [ ' a x _ y O O ,.%.%.$.#.    ",
"    l.l.k.k.> q 0 F u.i.w.K.N e d e U t.1.>.v u # # 2.%.$.#.@.    ",
"    k.k.g.g.n.t ~ L & G.B.q.e K U M 2 >.F.2 d / F r $.$.#.@.+.    ",
"    k.g.a.p.i.I R R 9 _ y.0.M.D s T 7.>.F.G u R W l #.@.+.O.O.    ",
"    g.a.p.p.i.i.m.j 3 a W C 8.4.: 7.c.B H < : 5 =.#.@.+.+.o.o.    ",
"    a.p.i.i.i.w.q.q.0.O A b.r.c , D.6.c 8 % $.#.#.+.O.O.o.o.X.    ",
"    i.p.i.w.q.q.q.0.0.z ^ A T g h M _ C ~ 2.#.@.@.O.O.o.o.....    ",
"    i.i.w.q.q.0.0.0.9.7.4 l 5 ] s ; 5 - 3.#.@.O.O.o.o.X.X. .|     ",
"    w.q.q.q.0.0.9.0.>.>.:.:.U.[ s t o @.@.@.O.O.o.X.X. . .| }     ",
"    0.q.0.0.9.0.>.>.>.:.:.:.b ^ e 8 . @.O.O.o.o.X... .| | }       ",
"      0.0.0.1.1.:.:.:.:.;.%.=.R # @ +.O.O.o.o... . .| } } {       ",
"        1.1.>.:.:.:.:.%.%.$.#.5 # *.O.O.o..... .| | } } {         ",
"          :.:.:.:.:.%.$.$.@.@.&.X O.o.X... . .| } } {             ",
"              ;.%.%.$.#.#.@.O.O.o.o.X.X. .| | } {                 ",
"                  #.#.@.+.+.O.o.o... . .| } } {                   ",
"                      +.O.o.o.X... .| | } }                       ",
"                        o.o..... .| | }                           ",
"                             .| | } {                             "
};
