/* XPM */
static char *_e883b55fbe74d9eec50aa335aa85b37YMOi6fNAtA3jiNWZ[] = {
/* columns rows colors chars-per-pixel */
"65 64 196 2 ",
"   c None",
".  c #724D59",
"X  c #7B5D77",
"o  c #6F5172",
"O  c #B57E10",
"+  c #B27E1B",
"@  c #8C603E",
"#  c #9D6D2B",
"$  c #AB7A26",
"%  c #AE7E2A",
"&  c #A6762E",
"*  c #A97A31",
"=  c #825C53",
"-  c #9F7649",
";  c #987459",
":  c #8B624A",
">  c #A27C54",
",  c #876568",
"<  c #9B7A6C",
"1  c #997765",
"2  c #8A6D7D",
"3  c #836578",
"4  c #957879",
"5  c #B68013",
"6  c #B9851A",
"7  c #B58325",
"8  c #B88621",
"9  c #BB8B2D",
"0  c #B58529",
"q  c #B48532",
"w  c #B88C3B",
"e  c #B68939",
"r  c #BF9237",
"t  c #C29021",
"y  c #C8992E",
"u  c #C59529",
"i  c #C29434",
"p  c #CB9D33",
"a  c #C59939",
"s  c #C49838",
"d  c #CEA238",
"f  c #CCA035",
"g  c #D1A63D",
"h  c #AE8446",
"j  c #AA834D",
"k  c #BE9443",
"l  c #A8845C",
"z  c #B58E4E",
"x  c #A48367",
"c  c #B89869",
"v  c #A58879",
"b  c #AD917A",
"n  c #B69A75",
"m  c #C49B44",
"M  c #C69F49",
"N  c #CBA348",
"B  c #D5AC42",
"V  c #D2AB4B",
"C  c #DDB443",
"Z  c #D8B24F",
"A  c #C9A559",
"S  c #D3AF58",
"D  c #D1AB54",
"F  c #D6B151",
"G  c #D9B353",
"H  c #D4B15B",
"J  c #DCB95E",
"K  c #DBB759",
"L  c #E0B847",
"P  c #E3BD4B",
"I  c #E2BE57",
"U  c #CCAC65",
"Y  c #C4A56B",
"T  c #CDAE6D",
"R  c #C4A568",
"E  c #D2B265",
"W  c #D8B761",
"Q  c #DBBC69",
"!  c #C1A474",
"~  c #C7AB75",
"^  c #D8BA70",
"/  c #E0BF63",
"(  c #E6C152",
")  c #EAC654",
"_  c #EBC856",
"`  c #EDCA5B",
"'  c #E3C15E",
"]  c #DDC275",
"[  c #E2C164",
"{  c #E7C96B",
"}  c #ECCC69",
"|  c #E9C966",
" . c #E2C573",
".. c #E1C67A",
"X. c #E3C97C",
"o. c #E8CC72",
"O. c #EDD37C",
"+. c #F6DA73",
"@. c #F1D77D",
"#. c #F2D87D",
"$. c #F9DF7B",
"%. c #F3D671",
"&. c #170299",
"*. c #1A059A",
"=. c #1E0A9C",
"-. c #220E9E",
";. c #25119F",
":. c #39249C",
">. c #2714A0",
",. c #2916A1",
"<. c #2D1AA3",
"1. c #301EA4",
"2. c #3422A6",
"3. c #3826A7",
"4. c #3927A8",
"5. c #3C2BA9",
"6. c #573C82",
"7. c #402891",
"8. c #4D3795",
"9. c #523D9A",
"0. c #543E91",
"q. c #402FAB",
"w. c #402DA1",
"e. c #4431A2",
"r. c #4434AD",
"t. c #4939AF",
"y. c #4D3BA5",
"u. c #4D3DB1",
"i. c #513EA5",
"p. c #5E4589",
"a. c #5A459C",
"s. c #6C538B",
"d. c #765E89",
"f. c #6A5494",
"g. c #6C579C",
"h. c #735C98",
"j. c #674C82",
"k. c #7A628C",
"l. c #7B669A",
"z. c #5C4AA6",
"x. c #5948AE",
"c. c #5442A9",
"v. c #4F40B2",
"b. c #5444B4",
"n. c #5A4BB6",
"m. c #5D4EB8",
"M. c #5F50B9",
"N. c #6957A7",
"B. c #705FAC",
"V. c #6353B2",
"C. c #6254BA",
"Z. c #6759BC",
"A. c #6B5DBE",
"S. c #6B5AB4",
"D. c #624FA5",
"F. c #7866AB",
"G. c #6E61BF",
"H. c #7566B8",
"J. c #6F62C0",
"K. c #7265C1",
"L. c #766AC3",
"P. c #796DC5",
"I. c #7D71C6",
"U. c #846983",
"Y. c #947A87",
"T. c #836D93",
"R. c #836D9A",
"E. c #8F7A9D",
"W. c #8C7796",
"Q. c #927C92",
"!. c #8B7388",
"~. c #806EA9",
"^. c #8977A8",
"/. c #907DA6",
"(. c #8879B5",
"). c #8175C7",
"_. c #8277C8",
"`. c #857AC9",
"'. c #897ECB",
"]. c #9F878E",
"[. c #9A8085",
"{. c #9C8898",
"}. c #A38A84",
"|. c #AA928B",
" X c #B49D8D",
".X c #AD9896",
"XX c #B29D94",
"oX c #A38E96",
"OX c #B9A69F",
"+X c #B09DA3",
"@X c #C2AB8B",
"#X c #CCB48A",
"$X c #D7BF84",
"%X c #DCC486",
"&X c #E4CC82",
"*X c #8B81CC",
/* pixels */
"                                                          K.I.`.'.'.).L.                                                          ",
"                                                      P.*X*X*X*X'.'.`.`.`._.A.                                                    ",
"                                                    '.*X*X*X'.'.'.`.`.`._._._.L.                                                  ",
"                                                _.*X*X*X*X'.'.`.`.`.`._._._.I.I.I.J.                                              ",
"                                            I.*X*X*X*X'.'.'.`.`._._._.).I.I.I.P.P.P.L.Z.                                          ",
"                                        L.'.'.*X*X*X'.'.`.`.`._._.).).I.I.I.P.P.P.L.L.L.K.                                        ",
"                                      `.'.*X'.'.'.'.`.`.`.`._._._.I.I.I.P.I.P.L.L.L.K.K.K.K.Z.                                    ",
"                                  I.*X*X*X*X'.'.'.'.`.`.`._._.).).I.I.I.P.P.L.L.L.L.K.K.J.J.G.G.C.                                ",
"                              K.*X*X*X*X*X*X'.'.`.`._.).).).).).I.I.P.P.P.L.L.L.K.K.J.J.G.G.G.A.A.Z.n.                            ",
"                            '.*X*X*X*X*X'.'.`.'.`.`.).).).).I.).P.P.P.L.L.K.K.K.K.K.J.J.G.A.A.A.Z.Z.Z.C.                          ",
"                        I.*X*X*X'.'.'.'.'.'.`.`.)._.).).I.I./.< b OX+X(.K.K.K.K.J.G.G.G.A.A.A.Z.Z.Z.C.C.C.m.                      ",
"                    P.*X*X*X*X*X'.'.'.`.'.`._.).).).).P.^.m y y B $.$.$.%X(.G.G.J.G.A.A.A.Z.Z.Z.C.C.C.C.C.m.n.n.                  ",
"                K.'.*X*X*X*X*X*X'.'.`.`.`._.).).).).).Y.y y y y B $.$.$.$.&X(.G.G.A.A.A.Z.Z.Z.C.C.C.m.m.m.m.n.n.n.u.              ",
"              I.*X*X*X*X*X*X'.'.`.`.`.`._.).).).).P.E.y y y y y B $.$.$.$.$.@.H.A.A.Z.Z.Z.C.C.C.C.C.M.m.n.n.n.n.n.n.v.            ",
"            I.*X*X*X*X*X'.'.'.`.`.`.).).).).).P.).P.< 9 i y y y B $.$.$.$.@.} ^.A.Z.Z.Z.C.C.C.C.m.m.m.m.n.n.n.n.b.b.b.u.          ",
"          K.*X*X*X*X*X'.'.'.`.`.`._.).).).I.I.P.P.L.~.O O O i i B $.X.{ ` _ W A.Z.Z.C.C.C.C.m.m.m.m.n.n.n.n.b.b.b.b.v.b.          ",
"          '.*X*X*X*X'.'.`.`.`._._.)._.I.I.I.P.P.P.K.L.* O O O O u _ ) ) ) ) |.A.C.C.C.C.C.M.m.m.m.n.n.n.b.n.b.b.u.b.u.v.u.        ",
"        K.*X*X*X'.'.'.`.`._._.).).I.I.I.P.P.P.L.P.P.K.2 O O O O t ) ) ) ) ) F.C.C.C.C.C.m.m.n.n.n.n.n.b.b.b.b.b.v.u.u.u.u.        ",
"        ).*X'.'.'.`.`.`._._.).).I.I.P.P.P.P.L.L.K.K.K.H.O O O O t ) ) ) ) E C.C.C.C.m.m.m.m.n.n.n.n.b.b.b.b.b.v.u.u.u.u.u.5.      ",
"        *X'.'.'.`.`._._._.).).I.P.I.P.P.L.L.L.K.K.K.G.J.- O O O t ) ) ) ) ].C.m.C.M.m.m.n.n.n.n.b.b.b.b.b.v.u.u.u.u.u.u.t.t.      ",
"        '.'.`.`.`._._._.).I.I.I.P.P.P.P.L.L.K.K.K.G.G.G.U.O O O t ) ) ) ) S.C.C.m.m.m.n.n.n.b.n.b.b.b.b.u.u.u.u.u.t.t.t.t.r.      ",
"        '.`.`._._.).).I.I.I.P.P.P.P.K.L.K.K.K.K.K.G.G.A.G.O 5 O t ) ) ) ! C.m.m.n.n.n.n.b.n.b.b.b.b.b.u.v.u.u.u.t.t.t.r.r.5.      ",
"        `._._._.).).I.I.I.P.P.L.L.L.L.K.K.K.K.A.G.A.A.A.A.; O O t ) ) ) Q.m.m.n.n.n.n.b.n.b.b.b.u.b.u.u.u.u.t.t.t.r.r.r.r.q.      ",
"        _._._._.).I.I.P.P.P.P.L.L.K.K./.n Y.R.F.G.A.A.Z.Z.h.O O t ) _ I m.m.n.n.n.x.g.h.3 b D.b.b.u.u.u.u.u.t.r.r.r.r.r.r.5.      ",
"        _.).I.I.I.I.P.P.P.L.L.L.K./.T _  .y y y y k ~.Z.C.C.$ O t ) ) n n.n.n.W.r p y y y  .) b D.t.t.t.t.t.r.r.r.r.r.5.r.5.      ",
"        ).I.I.I.I.P.P.L.L.L.K./.T _ ) _ $.d y y i D ) }.C.C., O t ) ) R.n.V.n ) a i y y F X.) ) ) b D.t.r.r.r.r.r.5.r.5.5.5.      ",
"        I.I.I.I.P.P.L.L.L.K.4 d ) ) ) ) $.K y s + S ) ) ! S.N.O t ) W m.F.U ) ) m 7 y y  .X.) ) ) ( i 9.r.r.r.q.q.r.5.5.5.4.      ",
"        I.P.P.P.L.L.L.K.K.K.$ O i I ) ) $.O.y 8 O S ) ) _ ^ V.& t ) }.T.[ ) ) ) M O 9 d $...) ) P 8 5 : r.r.r.r.5.5.5.5.5.4.      ",
"        I.P.L.L.L.L.K.K.K.2 O O O 7 P ) $.$.N O O K } @.$. .< , t ) N.z @.$.X.| M O 5 H $.&X) C O O O O 9.r.5.5.5.5.4.5.3.2.      ",
"        P.L.L.L.K.K.K.K.J.* O O O O + L $..XC.C.h.|.&X$.$.F y g.t U U.y ^ $.$.&X!.a.u.c.#X] f O O O O O = q.5.5.5.5.4.3.3.2.      ",
"        L.L.K.L.K.K.J.J.l.% % % $ 0 q i  XC.C.C.M.m.F.%X$.p p j h Y.s y B $.#Xx.u.u.t.u.t.~ q 0 % & $ $ & 5.5.5.3.3.3.2.2.2.      ",
"        L.L.K.K.K.J.G.G.A.s y y y y F $.^.C.M.M.m.m.m.C.c * q e 1 x q q q }.u.t.u.t.t.r.t.|.@.g y y y y ; 5.4.3.3.3.3.2.1.2.      ",
"        K.K.K.K.J.G.G.A.A.< y y y Z $.+.< n.M.m.m.n.n.n.X O 6 L Y.! g O O c.t.t.t.t.t.r.a.U $.@.V y y y j.5.2.3.2.2.2.1.1.1.      ",
"        K.K.J.G.G.A.A.A.A.B.y y J %./ ) t $ v XX#XV.b.n.f.a ` | Y J ` ( w t.t.t.N.#X{.- O N ( [ +.F y w 5.3.3.2.2.2.2.1.1.1.      ",
"        J.J.G.A.A.A.Z.Z.Z.Z.< | / ) ) ) O + G $.{.n.b.b.b..X#.%.z m $.@.N.t.t.t.r.@X$.f O f _ ) ) [ F X 3.2.2.2.2.1.1.<.<.<.      ",
"        G.G.G.A.A.A.Z.Z.Z.C.W.~ ) ) _ I O u p ..b.n.b.b.b.v.{.m j i A N.t.t.r.t.r.z.] y 8 8 _ _ ) ) c d.2.2.2.1.1.1.1.<.<.,.      ",
"        G.A.A.Z.Z.Z.Z.C.Z.M.C.M.B.}.W F 9 > 2 T.T Y A 3 v.v.v., j y s.t.t.r.> R R R s., h 7 ) U k.5.2.2.2.2.1.1.2.<.<.<.,.,.      ",
"        A.A.A.Z.Z.Z.C.C.M.M.M.M.m.n.n.T.n.n.d.i B [ N f T.v.u.c.; ; t.t.r.v 0 I [ s e 8.4.e.p.3.3.3.2.2.2.1.1.1.<.<.,.,.,.,.      ",
"        Z.Z.Z.Z.C.C.C.C.M.M.m.m.n.n.n.b.b.b., + 7 o.x ~ oXt.t.a.3 , y.r.t. Xx c F 7 O 6.4.4.3.2.:.2.1.1.1.1.<.<.,.,.,.,.>.;.      ",
"        Z.Z.Z.C.C.C.C.M.m.m.n.n.n.n.n.b.b.b.= O 0 W n.u.y.c.n H s.1 { x e.r.5.l.N $ O p.4.3.2.2.2.2.1.1.<.<.<.,.,.,.>.>.;.;.      ",
"        Z.C.C.C.M.M.M.m.m.n.n.n.b.b.n.b.u.b.d.) _ @.R 2 {.Y 6 E Y.U.G 6 ~ W.X ^ ] _ A 8.2.2.2.2.2.1.1.<.<.<.,.,.,.>.;.;.;.-.      ",
"        Z.C.C.C.m.m.m.m.n.n.n.b.n.b.b.b.b.u.u.Y.{ F e D O.U j k.} w X w ] o.r f o.' a.2.2.2.2.1.<.1.<.<.,.,.,.>.>.;.;.;.=.-.      ",
"        C.C.M.M.m.m.n.n.n.n.n.n.b.b.u.u.u.u.u.u.v j i ) R v z.O.} y h y.n U Z r ; k.2.2.2.1.1.1.<.<.<.,.,.,.>.;.;.;.-.-.-.=.      ",
"        C.M.m.m.n.n.n.n.b.b.b.u.u.b.u.b.u.u.u.t.t.r.t.t.r.t.%X$.} y y ; 4.5.3.3.2.2.2.1.1.1.<.<.<.<.,.,.>.>.;.>.;.-.-.=.=.=.      ",
"        m.m.n.n.n.n.b.n.b.b.b.u.b.u.u.u.u.u.t.t.t.r.r.r.r.XX$.$.} y y y o 4.3.2.2.2.1.1.1.<.<.<.,.,.,.>.;.;.;.-.-.-.=.=.=.*.      ",
"        n.n.n.n.n.n.b.b.b.b.b.b.u.u.u.t.u.t.t.r.r.r.5.r.{.$.$.$.} y y y y 8.2.2.1.1.1.1.<.<.<.,.,.>.>.;.;.;.-.=.=.=.=.*.*.*.      ",
"        u.n.n.n.n.b.b.b.u.b.u.u.u.u.t.t.t.t.r.r.t.r.r.5.f.` ] $.} y i q 6 :.1.1.1.1.<.<.<.,.,.,.>.;.;.;.-.-.-.=.=.=.*.*.*.        ",
"          n.n.b.b.b.b.u.b.u.u.u.u.u.t.t.r.r.r.r.5.r.5.5.4.c ) _ G 8 5 O o ,.1.1.1.<.<.,.,.,.,.;.;.;.-.-.-.=.=.=.*.*.*.*.&.        ",
"            n.b.b.u.b.u.b.u.u.t.u.t.r.r.r.r.r.r.5.r.5.5.5.9.J ) C O O # 1.1.1.<.<.<.<.,.,.>.;.;.;.-.-.-.=.=.=.*.*.*.&.&.          ",
"            u.b.u.b.u.u.u.t.t.t.r.r.r.r.r.r.r.5.5.5.5.5.4.3.4 ) C O O 6.1.1.<.<.,.,.,.>.>.;.;.;.-.-.=.=.=.=.*.*.&.&.&.            ",
"              u.u.u.u.u.u.t.t.t.r.r.r.r.5.5.q.5.5.5.3.3.3.3.w.E C O @ 1.1.<.<.,.,.,.>.;.;.-.-.-.-.=.=.=.*.*.*.&.&.&.              ",
"                  u.u.u.t.t.r.r.r.r.r.r.5.r.5.5.3.5.3.3.2.3.2.d.C O 7.1.<.,.,.,.>.>.;.;.;.-.-.=.=.=.*.*.*.&.&.&.&.                ",
"                    r.t.r.r.r.r.r.5.r.5.5.5.5.5.3.3.3.2.2.2.1.1.z . ;.;.<.,.,.>.;.>.;.-.-.-.=.=.=.*.*.*.&.&.&.                    ",
"                        r.r.r.r.r.5.5.5.5.4.3.3.2.3.2.2.2.1.2.<.p.:.;.1.,.>.>.;.;.-.-.-.-.=.=.*.*.*.*.&.&.&.                      ",
"                            q.q.5.5.5.5.5.3.3.3.2.2.2.1.<.1.<.<.<.<.<.;.>.;.;.>.-.-.-.=.=.*.*.*.*.&.&.&.                          ",
"                                5.5.5.4.3.3.3.2.2.1.1.1.<.<.<.<.;.1.;.;.;.>.-.-.-.=.=.=.=.*.*.*.&.&.                              ",
"                                  4.4.4.3.2.2.2.1.1.1.1.<.<.,.,.<.;.;.;.;.;.-.=.=.=.*.=.*.*.&.&.                                  ",
"                                      2.2.2.1.2.1.1.<.<.<.,.,.>.;.;.;.-.-.-.=.=.=.=.*.*.*.&.&.                                    ",
"                                          1.1.1.<.<.<.,.,.,.>.>.;.;.;.-.-.=.=.=.*.*.*.&.&.                                        ",
"                                            <.<.<.<.,.,.>.>.;.;.;.;.-.=.=.=.=.*.*.*.&.                                            ",
"                                                ,.,.,.>.>.;.;.-.-.-.-.=.=.*.*.*.*.&.                                              ",
"                                                    >.;.;.-.-.-.=.=.=.*.*.*.*.&.                                                  ",
"                                                        ;.-.-.=.=.*.*.=.*.&.                                                      ",
"                                                            =.=.=.*.&.*.                                                          "
};
